<svg width="34" height="34" viewBox="0 0 34 34" fill="none" xmlns="http://www.w3.org/2000/svg">
<path d="M17 2.8335C18.401 2.8335 19.7705 3.24893 20.9353 4.02725C22.1002 4.80558 23.0081 5.91185 23.5442 7.20616C24.0803 8.50046 24.2206 9.92469 23.9473 11.2987C23.674 12.6728 22.9993 13.9349 22.0087 14.9255C21.0181 15.9161 19.756 16.5907 18.3819 16.8641C17.0079 17.1374 15.5837 16.9971 14.2894 16.461C12.9951 15.9249 11.8888 15.017 11.1105 13.8521C10.3321 12.6873 9.91671 11.3178 9.91671 9.91683L9.92379 9.60941C10.003 7.78581 10.7832 6.06318 12.1015 4.80076C13.4199 3.53835 15.1747 2.8336 17 2.8335ZM19.8334 19.8335C21.712 19.8335 23.5137 20.5798 24.842 21.9082C26.1704 23.2365 26.9167 25.0382 26.9167 26.9168V28.3335C26.9167 29.0849 26.6182 29.8056 26.0868 30.337C25.5555 30.8683 24.8348 31.1668 24.0834 31.1668H9.91671C9.16526 31.1668 8.44459 30.8683 7.91324 30.337C7.38188 29.8056 7.08337 29.0849 7.08337 28.3335V26.9168C7.08337 25.0382 7.82965 23.2365 9.15803 21.9082C10.4864 20.5798 12.2881 19.8335 14.1667 19.8335H19.8334Z" fill="#AAAAAA"/>
</svg>
