<svg width="60" height="60" viewBox="0 0 60 60" fill="none" xmlns="http://www.w3.org/2000/svg">
<path d="M0 30C0 13.4315 13.4315 0 30 0C46.5685 0 60 13.4315 60 30C60 46.5685 46.5685 60 30 60C13.4315 60 0 46.5685 0 30Z" fill="url(#paint0_linear_4003_318)"/>
<g clip-path="url(#clip0_4003_318)">
<path d="M41.0252 23.738C39.9901 22.7003 38.0443 22.9901 36.6411 23.437C34.8787 24.0012 33.0671 25.0689 31.9125 26.2248C29.7736 28.3612 30.6572 29.9406 32.741 32.0245C34.8264 34.1098 36.4108 34.9831 38.5408 32.853C39.6966 31.6984 40.7644 29.8867 41.3286 28.1245C41.9579 26.1584 41.848 24.5596 41.0252 23.738Z" fill="#FF9B57"/>
<path d="M10 45.2344V46.4844C10 48.426 11.7302 50 13.6719 50H41.7966C43.7382 50 45.3122 48.426 45.3122 46.4844V45.2344H10Z" fill="#00B0B0"/>
<path d="M49.3128 18.7666C48.4174 17.8735 47.417 18.1313 46.7379 18.0273C46.6376 17.373 46.8858 16.3421 45.9986 15.4524C45.1297 14.5835 43.5545 14.5824 42.6844 15.4524C41.984 16.1528 41.8009 17.225 42.2267 18.1211L42.5837 18.8684L41.9978 19.4532L40.4965 20.8901C41.527 21.1553 42.244 21.641 42.6844 22.083C43.2649 22.6621 43.6108 23.4164 43.8291 24.2502L45.8979 22.1816L46.6452 22.5386C47.5005 22.9473 48.5807 22.8121 49.3128 22.082C50.2286 21.1662 50.2294 19.6832 49.3128 18.7666Z" fill="#FF9B57"/>
<path d="M17.1874 38.2031C14.5986 38.2031 12.5 40.3017 12.5 42.8906H21.8749C21.8749 40.3016 19.7762 38.2031 17.1874 38.2031Z" fill="#00B0B0"/>
<path d="M26.5623 38.2031C23.9735 38.2031 21.8749 40.3016 21.8749 42.8905H31.2498C31.2497 40.3017 29.1511 38.2031 26.5623 38.2031Z" fill="#00B0B0"/>
<path d="M42.6229 31.0464C41.9515 32.3647 41.1186 33.5898 40.1965 34.5112C37.0751 37.6356 34.0837 36.6816 31.0837 33.6815C28.1065 30.7042 27.0994 27.7197 30.2563 24.5664C31.0037 23.8184 31.9494 23.1231 32.983 22.5262C31.3443 22.0628 29.5815 21.7969 27.7341 21.7969C19.3205 21.7969 12.4999 27.0435 12.4999 33.5155C12.4999 34.7621 12.7579 35.9611 13.2266 37.0881C14.3557 36.3149 15.7184 35.8593 17.1874 35.8593C18.9947 35.8593 20.6281 36.5636 21.8748 37.688C23.1216 36.5636 24.7549 35.8593 26.5622 35.8593C30.4395 35.8593 33.5934 39.0133 33.5934 42.8905H36.8137C40.5364 40.7545 42.9683 37.3629 42.9683 33.5156C42.9683 32.6679 42.8451 31.843 42.6229 31.0464Z" fill="#FF9B57"/>
<path d="M13.2324 10.0005L11.9323 11.9506C12.3981 12.2607 12.6648 12.7596 12.6648 13.3193C12.6648 13.879 12.3981 14.456 11.9323 14.7662C10.82 15.5076 10 16.7481 10 18.0848C10 19.4214 10.82 20.662 11.9323 21.4036L13.2324 19.4535C12.7666 19.1434 12.5 18.6445 12.5 18.0848C12.5 17.5251 12.7666 17.0262 13.2324 16.716C14.3448 15.9745 15.0085 14.6558 15.0085 13.3192C15.0085 11.9825 14.3447 10.742 13.2324 10.0005Z" fill="#00B0B0"/>
<path d="M19.0917 10L17.7916 11.9501C18.2574 12.2602 18.524 12.7591 18.524 13.3188C18.524 13.8785 18.2574 14.4555 17.7916 14.7657C16.6793 15.5072 16.0155 16.7477 16.0155 18.0844C16.0155 19.421 16.6793 20.6615 17.7916 21.4031L19.0917 19.453C18.6259 19.1429 18.3592 18.644 18.3592 18.0843C18.3592 17.5246 18.6259 17.0257 19.0917 16.7155C20.204 15.9741 20.8678 14.6555 20.8678 13.3187C20.8678 11.9821 20.204 10.7416 19.0917 10Z" fill="#00B0B0"/>
</g>
<defs>
<linearGradient id="paint0_linear_4003_318" x1="30" y1="0" x2="30" y2="60" gradientUnits="userSpaceOnUse">
<stop stop-color="white"/>
<stop offset="1" stop-color="#CFF6FF"/>
</linearGradient>
<clipPath id="clip0_4003_318">
<rect width="40" height="40" fill="white" transform="translate(10 10)"/>
</clipPath>
</defs>
</svg>
