<svg width="183" height="164" viewBox="0 0 183 164" fill="none" xmlns="http://www.w3.org/2000/svg">
<g clip-path="url(#clip0_4003_198)">
<g style="mix-blend-mode:multiply" opacity="0.19">
<path d="M182.37 122.269V121.272C182.356 120.716 182.328 120.121 182.273 119.471V119.319C182.217 118.696 182.161 118.031 182.065 117.338C182.065 117.268 182.051 117.198 182.037 117.13C182.01 116.951 181.982 116.756 181.954 116.562C181.94 116.465 181.926 116.369 181.912 116.285C181.912 116.202 181.884 116.132 181.87 116.049C181.829 115.772 181.773 115.481 181.717 115.204C181.717 115.135 181.69 115.065 181.676 114.997C181.676 114.955 181.662 114.913 181.648 114.872C181.578 114.567 181.509 114.262 181.439 113.944C181.411 113.846 181.384 113.736 181.37 113.639C181.3 113.348 181.217 113.057 181.135 112.766C181.121 112.697 181.093 112.627 181.079 112.559C180.968 112.212 180.858 111.866 180.746 111.506C180.718 111.408 180.677 111.326 180.649 111.229C180.593 111.076 180.538 110.938 180.483 110.785C180.442 110.66 180.386 110.55 180.33 110.424C180.289 110.327 180.247 110.217 180.205 110.12C180.122 109.912 180.026 109.704 179.928 109.496C179.873 109.357 179.803 109.233 179.749 109.094C179.735 109.052 179.707 109.024 179.693 108.983C179.637 108.885 179.596 108.789 179.541 108.692C179.43 108.483 179.334 108.29 179.223 108.096C179.167 107.999 179.111 107.903 179.057 107.805C178.904 107.542 178.738 107.293 178.571 107.044C178.53 106.975 178.474 106.905 178.432 106.823C178.225 106.518 177.988 106.213 177.753 105.923C177.698 105.853 177.642 105.783 177.574 105.715C177.38 105.48 177.185 105.257 176.978 105.036C176.908 104.953 176.826 104.883 176.757 104.801C176.701 104.745 176.659 104.69 176.604 104.635C176.381 104.414 176.146 104.205 175.911 104.012C175.62 103.763 175.371 103.471 175.136 103.152C175.08 103.082 175.038 103.013 174.984 102.945C174.763 102.626 174.568 102.293 174.388 101.919C174.36 101.863 174.347 101.808 174.319 101.767V101.74C174.167 101.407 174.028 101.047 173.889 100.686C173.861 100.603 173.833 100.533 173.805 100.451C173.666 100.049 173.556 99.6341 173.445 99.2041C173.417 99.1067 173.389 98.9967 173.375 98.8855C173.278 98.4972 173.196 98.109 173.126 97.7347C173.126 97.6791 173.098 97.6234 173.085 97.5691C173.001 97.1252 172.919 96.6965 172.849 96.2666C172.78 95.8923 172.724 95.518 172.656 95.1576C172.628 95.0059 172.6 94.8668 172.572 94.7138C172.503 94.3116 172.421 93.9108 172.351 93.5504C171.991 91.8736 171.616 90.1968 171.242 88.5352C170.093 83.534 168.818 78.5732 167.017 73.7389C166.533 72.4503 166.02 71.1896 165.48 69.9428C165.48 69.9289 165.466 69.9149 165.452 69.8871C164.912 68.6542 164.344 67.4491 163.747 66.2579C164.094 65.7319 164.412 65.2185 164.731 64.6924C164.842 64.5128 164.966 64.3181 165.064 64.1385C165.354 63.6403 165.631 63.1547 165.908 62.6565C166.02 62.4491 166.143 62.2266 166.255 62.0192C166.518 61.521 166.768 61.0354 167.017 60.5372C167.129 60.3298 167.225 60.1072 167.322 59.8998C167.557 59.4016 167.792 58.8882 168.015 58.39C168.098 58.2104 168.167 58.0157 168.25 57.8361C168.485 57.2949 168.708 56.7549 168.929 56.215C168.943 56.1732 168.957 56.1315 168.971 56.0898C169.706 54.1917 170.329 52.2936 170.841 50.4095C170.883 50.2704 170.925 50.1186 170.966 49.9795C171.105 49.4535 171.229 48.9401 171.355 48.428C171.41 48.2206 171.452 48.0119 171.508 47.8045C171.619 47.3051 171.729 46.8068 171.826 46.3225C171.868 46.1012 171.91 45.8787 171.965 45.6435C172.063 45.1591 172.145 44.6735 172.228 44.1741C172.27 43.9667 172.298 43.7441 172.326 43.5367C172.409 43.0385 172.479 42.539 172.547 42.0408C172.561 41.889 172.589 41.75 172.603 41.5969C172.824 39.8784 172.963 38.189 173.047 36.5122C173.047 36.3327 173.074 36.1658 173.074 35.9862C173.088 35.5284 173.102 35.0858 173.116 34.642C173.116 34.4068 173.116 34.1577 173.13 33.9212V31.9119C173.13 31.4958 173.13 31.095 173.102 30.6929C173.102 30.4437 173.088 30.1946 173.074 29.9442C173.06 29.5421 173.047 29.1413 173.019 28.7531C173.019 28.5179 172.991 28.2953 172.977 28.0601C172.949 27.658 172.935 27.2432 172.894 26.8411V26.6881C172.824 25.746 172.728 24.8317 172.631 23.9314C172.603 23.7379 172.589 23.5432 172.561 23.3497C172.519 22.9893 172.478 22.6289 172.422 22.2685C172.394 22.0472 172.366 21.8108 172.338 21.5895C172.297 21.243 172.241 20.9104 172.187 20.5639C172.159 20.3426 172.117 20.1201 172.089 19.8988C172.034 19.5662 171.978 19.2475 171.924 18.915C171.882 18.7076 171.854 18.4989 171.812 18.2916C171.757 17.959 171.701 17.6403 171.633 17.3217C171.605 17.156 171.563 16.9891 171.535 16.8234C171.466 16.4769 171.396 16.1444 171.327 15.8118V15.7422C171.05 14.4398 170.773 13.2208 170.496 12.1118C170.496 12.07 170.468 12.0283 170.468 11.9866C170.385 11.6401 170.289 11.2936 170.205 10.961C170.205 10.9193 170.191 10.8915 170.177 10.8498C170.08 10.5033 169.998 10.1707 169.9 9.85205C169.873 9.75468 169.845 9.67248 169.817 9.58902C169.678 9.1047 169.54 8.63303 169.401 8.20309C169.304 7.91225 169.194 7.6214 169.068 7.34447C168.666 6.52758 168.098 5.82071 167.405 5.26684C166.948 4.89254 166.422 4.58778 165.868 4.36649C165.314 4.1452 164.718 4.0061 164.095 3.96437C152.9 3.11966 142.952 8.63303 135.527 14.7294C134.543 15.5462 133.587 16.3644 132.7 17.1813C132.256 17.5973 131.814 17.9982 131.398 18.4003C125.467 24.0945 121.977 29.2766 121.977 29.2766L122.489 29.8722C121.368 29.4422 120.245 29.0414 119.123 28.6532C118.93 28.5836 118.735 28.528 118.541 28.4597C117.53 28.1271 116.504 27.8084 115.493 27.5037C115.367 27.462 115.243 27.4341 115.132 27.3924C97.8282 22.3912 80.3018 23.1802 64.1056 29.5535L64.3547 29.2627C64.3547 29.2627 46.0543 2.14976 22.1824 3.95172C21.2543 4.02127 20.3817 4.29821 19.6053 4.7547C19.0932 5.05946 18.6215 5.43376 18.2194 5.86244C18.012 6.08373 17.8312 6.3202 17.6655 6.5554C17.333 7.05363 17.056 7.59485 16.8752 8.19044C16.8335 8.31563 16.7917 8.46738 16.75 8.60648C16.597 9.09079 16.4592 9.6042 16.2922 10.172C13.2852 21.0065 8.89344 45.5423 22.6933 66.4628C20.5461 70.7584 18.772 75.2462 17.3734 79.9022C15.9331 84.71 15.5727 94.8933 12.8287 100.92C12.7313 101.143 12.6213 101.35 12.51 101.557C12.4126 101.751 12.3165 101.946 12.2053 102.139C12.1079 102.319 11.9979 102.486 11.8866 102.651C11.7475 102.859 11.6097 103.067 11.4567 103.261C11.3593 103.386 11.2771 103.511 11.1797 103.621C10.9306 103.926 10.6676 104.203 10.3767 104.438C5.04293 108.927 4.00348 117.115 3.8783 121.688V124.375C3.8783 124.5 3.8783 124.61 3.89221 124.707V124.998C3.94785 124.679 4.04521 124.389 4.16914 124.112C4.21087 124.014 4.26651 123.932 4.30824 123.835C4.3917 123.654 4.4878 123.474 4.59908 123.321C4.66863 123.224 4.75083 123.142 4.82037 123.044C4.93165 122.905 5.04167 122.754 5.18077 122.628C5.26423 122.545 5.36033 122.463 5.44379 122.393C5.58289 122.268 5.72072 122.144 5.87373 122.033C5.9711 121.963 6.06721 121.894 6.15067 121.839C6.31632 121.728 6.48324 121.618 6.64889 121.521C6.73235 121.465 6.82846 121.423 6.92583 121.369C7.1193 121.272 7.31404 121.174 7.52142 121.078C7.59097 121.05 7.67443 121.008 7.74272 120.981C7.97792 120.883 8.20048 120.787 8.43568 120.718C8.47741 120.704 8.53305 120.69 8.57478 120.676C8.85171 120.579 9.12865 120.496 9.40558 120.427C9.75206 120.329 10.0985 120.247 10.4311 120.178C11.941 119.859 13.1056 119.817 13.1056 119.817C9.116 123.197 8.04873 126.565 7.96527 129.1C7.88181 131.636 8.80998 133.325 8.80998 133.325C11.8031 131.483 17.5517 130.25 24.5484 130.527C25.1301 130.554 25.7257 130.582 26.3213 130.624C27.4429 130.707 28.5936 130.831 29.7709 130.998C31.7246 131.275 33.734 131.663 35.7838 132.176C38.4026 132.841 41.0759 133.727 43.7364 134.877C45.0667 135.444 46.4109 136.082 47.7273 136.775C48.3925 137.121 49.0576 137.495 49.7089 137.869C54.308 140.556 58.7832 144.089 62.8158 148.661C65.9746 152.236 69.4242 155.409 73.276 157.903C74.3698 158.609 75.5066 159.273 76.67 159.87C79.5797 161.366 82.6829 162.461 86.0364 163.099C87.3806 163.348 88.7514 163.528 90.1651 163.611C91.2868 163.68 92.354 163.708 93.4074 163.694C97.5083 163.68 101.167 163.112 104.533 162.005C105.003 161.852 105.461 161.672 105.933 161.491C106.016 161.464 106.098 161.436 106.196 161.394C106.708 161.2 107.207 160.978 107.705 160.757C107.857 160.687 108.01 160.618 108.163 160.549C108.621 160.342 109.064 160.105 109.507 159.87C109.687 159.773 109.882 159.677 110.061 159.565C110.477 159.329 110.879 159.094 111.294 158.845C111.502 158.719 111.71 158.582 111.932 158.456C112.32 158.207 112.693 157.958 113.068 157.708C113.304 157.555 113.525 157.389 113.761 157.224C114.122 156.974 114.468 156.71 114.815 156.447C115.064 156.254 115.313 156.059 115.563 155.851C115.647 155.782 115.743 155.712 115.826 155.644C116.034 155.478 116.242 155.312 116.436 155.146C116.464 155.118 116.505 155.09 116.533 155.049C116.796 154.827 117.073 154.578 117.336 154.342C117.641 154.079 117.946 153.814 118.237 153.537C118.541 153.26 118.832 152.97 119.137 152.679C119.33 152.499 119.511 152.318 119.705 152.139C119.732 152.111 119.76 152.083 119.788 152.055C119.844 152 119.886 151.944 119.941 151.904C120.302 151.543 120.648 151.169 121.008 150.809C121.216 150.587 121.438 150.379 121.646 150.143C122.214 149.534 122.781 148.91 123.35 148.259C123.932 147.608 124.514 146.971 125.095 146.361C132.799 138.422 141.873 133.947 150.38 131.758C151.682 131.426 152.985 131.149 154.259 130.912C155.534 130.677 156.795 130.496 158.014 130.372C160.466 130.109 162.808 130.026 164.997 130.095C170.442 130.261 174.861 131.384 177.355 132.922C177.355 132.922 177.383 132.88 177.41 132.81C177.438 132.755 177.466 132.685 177.508 132.603C177.536 132.52 177.577 132.437 177.619 132.326C177.619 132.298 177.633 132.284 177.647 132.257C177.703 132.117 177.758 131.952 177.813 131.772V131.73C177.868 131.565 177.91 131.37 177.952 131.175C177.952 131.134 177.966 131.078 177.98 131.036C178.021 130.857 178.049 130.676 178.077 130.482C178.077 130.413 178.091 130.343 178.105 130.275C178.133 130.082 178.146 129.901 178.16 129.693V128.696C178.16 128.64 178.16 128.57 178.146 128.502C178.146 128.295 178.119 128.086 178.091 127.865C178.091 127.754 178.063 127.63 178.049 127.504C178.021 127.297 177.98 127.074 177.924 126.853C177.896 126.728 177.868 126.59 177.827 126.451C177.771 126.229 177.701 126.007 177.633 125.786C177.591 125.647 177.536 125.509 177.48 125.356C177.397 125.135 177.287 124.898 177.189 124.663C177.12 124.511 177.05 124.358 176.982 124.219C176.857 123.984 176.719 123.747 176.58 123.512C176.482 123.361 176.399 123.208 176.303 123.056C176.137 122.807 175.956 122.558 175.777 122.307C175.665 122.154 175.555 122.002 175.43 121.849C175.209 121.572 174.96 121.309 174.709 121.031C174.584 120.892 174.474 120.768 174.349 120.629C173.947 120.227 173.517 119.812 173.033 119.41H173.06C173.226 119.41 174.861 119.507 176.733 120.02C177.01 120.089 177.287 120.185 177.563 120.269C177.605 120.283 177.647 120.297 177.703 120.31C177.716 120.31 177.744 120.324 177.758 120.338C177.966 120.408 178.188 120.49 178.396 120.587C178.465 120.615 178.547 120.657 178.617 120.685C178.824 120.768 179.019 120.878 179.212 120.976C179.31 121.017 179.392 121.073 179.475 121.127C179.489 121.127 179.517 121.155 179.531 121.169C179.683 121.253 179.836 121.35 179.975 121.446C179.989 121.446 180.017 121.474 180.031 121.488C180.1 121.543 180.182 121.585 180.252 121.639C180.404 121.751 180.543 121.875 180.682 122C180.765 122.083 180.861 122.152 180.945 122.235C181.07 122.36 181.194 122.512 181.305 122.651C181.375 122.748 181.457 122.831 181.527 122.928C181.638 123.094 181.735 123.275 181.817 123.454C181.859 123.551 181.915 123.634 181.956 123.731C182.082 124.008 182.164 124.313 182.233 124.631V124.341C182.233 124.243 182.233 124.147 182.247 124.008V122.359L182.373 122.262L182.37 122.269Z" fill="#00C5F1"/>
</g>
<path d="M60.4359 25.412C60.4359 25.412 42.1886 -1.71486 18.318 0.0858398C15.8521 0.265404 13.7315 1.95609 13.012 4.32583C9.81145 14.7722 2.93996 45.4738 23.6113 68.8462L60.4498 25.412H60.4359Z" fill="#C95C3F"/>
<path d="M60.5623 25.412C60.5623 25.412 42.3151 -1.71486 18.4444 0.0858398C15.9786 0.265404 13.858 1.95609 13.1385 4.32583C9.93791 14.7722 3.06643 45.4738 23.7378 68.8462L60.5762 25.412H60.5623Z" fill="url(#paint0_linear_4003_198)"/>
<path d="M18.4444 0.0858819C15.9786 0.265446 13.858 1.95613 13.1384 4.32587C12.9589 4.92146 12.7641 5.58661 12.5568 6.3074C36.2061 4.89365 54.2169 31.6474 54.2169 31.6474L23.2105 68.2102C23.39 68.4176 23.557 68.6262 23.7365 68.8336L60.5762 25.3981C60.5762 25.3981 42.3151 -1.71482 18.4444 0.0858819Z" fill="#00C3E9"/>
<path style="mix-blend-mode:multiply" d="M54.0904 30.33C54.0904 30.33 40.374 9.94946 22.4328 11.2937C20.5764 11.4328 18.997 12.7074 18.4432 14.4803C16.033 22.3356 10.8787 45.4045 26.4097 62.9714L54.0917 30.33H54.0904Z" fill="url(#paint1_linear_4003_198)"/>
<path d="M118.057 25.412C118.057 25.412 136.303 -1.71486 160.189 0.0858398C162.655 0.265404 164.775 1.95609 165.495 4.32583C168.695 14.7722 175.567 45.4738 154.895 68.8462L118.056 25.412H118.057Z" fill="#C95C3F"/>
<path d="M118.057 25.412C118.057 25.412 136.303 -1.71486 160.189 0.0858398C162.655 0.265404 164.775 1.95609 165.495 4.32583C168.695 14.7722 175.567 45.4738 154.895 68.8462L118.056 25.412H118.057Z" fill="url(#paint2_linear_4003_198)"/>
<path d="M166.41 7.59494C166.092 6.36202 165.773 5.26693 165.482 4.32485C164.761 1.95511 162.642 0.265692 160.176 0.0848632C136.29 -1.71584 118.058 25.411 118.058 25.411L124.418 32.9059C124.583 32.6568 142.705 5.90299 166.412 7.59367L166.41 7.59494Z" fill="#00C3E8"/>
<path style="mix-blend-mode:multiply" d="M124.416 30.33C124.416 30.33 138.133 9.94946 156.074 11.2937C157.93 11.4328 159.51 12.7074 160.065 14.4803C162.475 22.3356 167.629 45.4045 152.098 62.9714L124.416 30.33Z" fill="url(#paint3_linear_4003_198)"/>
<path d="M171.979 100.157C169.388 97.9825 169.056 92.7448 168.404 89.7112C166.95 83.0053 165.467 76.3412 163.071 69.8984C155.755 50.2387 140.903 35.5119 121.674 27.2684C91.9836 14.5497 60.589 19.2879 35.8167 40.5549C24.9126 49.92 17.639 62.3479 13.5242 76.0226C11.7235 81.9937 11.6122 96.2779 6.52755 100.558C-1.14818 107.016 0.0708369 121.12 0.0708369 121.12C0.985096 116.216 9.27033 115.896 9.27033 115.896C1.28985 122.643 4.97597 129.405 4.97597 129.405C12.9564 124.5 40.5688 123.878 58.9817 144.742C66.1858 152.903 74.9983 158.957 86.3172 159.678C100.85 160.606 109.994 155.119 119.512 144.34C137.925 123.476 165.538 124.085 173.518 129.003C173.518 129.003 177.204 122.255 169.224 115.508C169.224 115.508 177.509 115.812 178.423 120.731C178.423 120.731 179.656 106.614 171.981 100.171V100.157H171.979Z" fill="#F47C3F"/>
<path d="M171.979 100.157C169.388 97.9825 169.056 92.7448 168.404 89.7112C166.95 83.0053 165.467 76.3412 163.071 69.8984C155.755 50.2387 140.903 35.5119 121.674 27.2684C91.9836 14.5497 60.589 19.2879 35.8167 40.5549C24.9126 49.92 17.639 62.3479 13.5242 76.0226C11.7235 81.9937 11.6122 96.2779 6.52755 100.558C-1.14818 107.016 0.0708369 121.12 0.0708369 121.12C0.985096 116.216 9.27033 115.896 9.27033 115.896C1.28985 122.643 4.97597 129.405 4.97597 129.405C12.9564 124.5 40.5688 123.878 58.9817 144.742C66.1858 152.903 74.9983 158.957 86.3172 159.678C100.85 160.606 109.994 155.119 119.512 144.34C137.925 123.476 165.538 124.085 173.518 129.003C173.518 129.003 177.204 122.255 169.224 115.508C169.224 115.508 177.509 115.812 178.423 120.731C178.423 120.731 179.656 106.614 171.981 100.171V100.157H171.979Z" fill="#D66C47"/>
<path d="M178.422 120.731C177.508 115.814 169.223 115.509 169.223 115.509C177.203 122.257 173.517 129.003 173.517 129.003C165.536 124.085 137.925 123.476 119.512 144.34C109.994 155.119 100.85 160.605 86.3171 159.678C74.997 158.957 66.1857 152.903 58.9816 144.742C40.5687 123.878 12.9563 124.5 4.97587 129.405C4.97587 129.405 1.29101 122.643 9.27149 115.896C9.27149 115.896 0.986258 116.216 0.0719986 121.12C0.0719986 121.12 -1.14828 107.016 6.52745 100.56C11.6121 96.2791 11.7234 81.995 13.5241 76.0226C15.01 71.0833 16.9093 66.3059 19.2411 61.7776C20.063 60.1817 20.9394 58.6175 21.8701 57.0874C22.6945 55.7318 23.5633 54.4028 24.475 53.1041C25.4879 51.66 26.5552 50.2526 27.6793 48.8856C30.1262 45.9051 32.8361 43.1155 35.8166 40.5549C60.5889 19.2879 91.9835 14.5497 121.674 27.2684C133.372 32.2835 143.451 39.6988 151.198 49.1638C152.279 50.4853 153.313 51.8434 154.3 53.242C154.338 53.2951 154.376 53.3494 154.414 53.4025C155.325 54.7 156.195 56.0315 157.024 57.396C157.237 57.7475 157.448 58.1016 157.656 58.4582C158.335 59.6177 158.982 60.8001 159.598 62.0052C160.896 64.5393 162.055 67.1721 163.071 69.8997C165.468 76.3412 166.95 83.0053 168.404 89.7112C169.057 92.746 169.388 97.9825 171.979 100.157V100.171C179.655 106.614 178.422 120.731 178.422 120.731Z" fill="url(#paint4_linear_4003_198)"/>
<g style="mix-blend-mode:multiply" opacity="0.05">
<path d="M178.504 118.182V117.393C178.365 112.821 177.34 104.633 172.006 100.144C171.826 99.9918 171.645 99.811 171.48 99.6175C171.424 99.5619 171.382 99.4923 171.328 99.4379C171.217 99.2988 171.107 99.161 171.009 99.008C170.954 98.9384 170.912 98.855 170.87 98.7867C170.773 98.621 170.677 98.4541 170.593 98.2885C170.566 98.2189 170.524 98.1633 170.482 98.095C170.357 97.8585 170.246 97.6094 170.15 97.3464C170.15 97.3186 170.136 97.2907 170.122 97.2629C170.024 97.0277 169.942 96.7925 169.873 96.5422C169.845 96.4587 169.817 96.3765 169.789 96.293C169.733 96.0996 169.664 95.8909 169.61 95.6835C169.582 95.6001 169.568 95.5166 169.54 95.4332C169.484 95.198 169.429 94.9627 169.374 94.7263C169.374 94.6845 169.347 94.6289 169.347 94.5872C169.277 94.2824 169.221 93.9916 169.167 93.6868C168.89 92.2314 168.683 90.8189 168.446 89.696C166.991 82.9901 165.509 76.326 163.112 69.8832C162.156 67.3061 161.047 64.8124 159.842 62.4022C173.628 41.3161 169.028 16.6134 166.022 5.97234C165.994 5.87497 165.966 5.79278 165.953 5.70932C165.813 5.21109 165.676 4.73942 165.537 4.32339C164.816 1.95365 162.696 0.264227 160.229 0.0833984C136.343 -1.7173 118.111 25.4095 118.111 25.4095L118.624 26.0051C109.008 22.2924 99.2407 20.4083 89.6265 20.2831V159.758C102.317 159.702 110.782 154.285 119.566 144.324C137.978 123.459 165.591 124.069 173.571 128.986C173.571 128.986 173.599 128.945 173.627 128.875C174.043 128.003 176.675 121.753 169.277 115.477C169.277 115.477 171.009 115.547 172.976 116.087C173.253 116.156 173.531 116.252 173.808 116.336C173.85 116.35 173.891 116.364 173.947 116.378C174.182 116.461 174.417 116.543 174.64 116.641C174.709 116.668 174.792 116.71 174.861 116.738C175.069 116.822 175.263 116.932 175.457 117.029C175.554 117.071 175.638 117.126 175.72 117.182C175.899 117.279 176.066 117.389 176.218 117.501C176.315 117.57 176.412 117.626 176.495 117.694C176.647 117.805 176.786 117.929 176.925 118.054C177.008 118.138 177.104 118.206 177.188 118.29C177.313 118.415 177.437 118.567 177.548 118.706C177.618 118.803 177.7 118.885 177.77 118.983C177.881 119.148 177.977 119.329 178.06 119.509C178.102 119.606 178.158 119.688 178.2 119.786C178.325 120.063 178.407 120.367 178.477 120.686V120.367C178.477 120.27 178.477 120.174 178.49 120.035V119.979C178.49 119.868 178.49 119.744 178.504 119.605V118.135V118.177V118.182Z" fill="#4F332C"/>
</g>
<path d="M66.9887 89.1381C68.3102 83.5375 64.8428 77.9268 59.2422 76.6041C53.6416 75.2826 48.0308 78.7512 46.7094 84.3506C45.3867 89.9512 48.8553 95.562 54.4559 96.8847C60.0566 98.2061 65.6673 94.7375 66.9887 89.1381Z" fill="#1B191A"/>
<path d="M63.5947 84.3496C63.5947 86.2059 62.0849 87.7158 60.2285 87.7158C58.3722 87.7158 56.8611 86.2059 56.8611 84.3496C56.8611 82.4933 58.3709 80.9834 60.2285 80.9834C62.0861 80.9834 63.5947 82.4933 63.5947 84.3496Z" fill="white"/>
<path d="M131.795 89.1496C133.121 83.5502 129.658 77.9357 124.06 76.6092C118.46 75.2827 112.846 78.7462 111.519 84.3443C110.193 89.9437 113.656 95.5582 119.254 96.8847C124.854 98.2112 130.468 94.7477 131.795 89.1496Z" fill="#1B191A"/>
<path d="M128.392 84.3496C128.392 86.2059 126.882 87.7158 125.025 87.7158C123.167 87.7158 121.658 86.2059 121.658 84.3496C121.658 82.4933 123.168 80.9834 125.025 80.9834C126.881 80.9834 128.392 82.4933 128.392 84.3496Z" fill="white"/>
<path d="M171.979 100.158C170.344 98.7868 169.61 96.1958 169.125 93.7021C122.684 103.442 89.5581 127.993 89.5581 127.993C58.51 98.8981 20.23 96.9444 8.96553 97.0557C8.30038 98.5112 7.51131 99.7302 6.51359 100.575C-1.14822 107.016 0.070788 121.12 0.070788 121.12C0.985047 116.215 9.27028 115.896 9.27028 115.896C1.2898 122.642 4.97592 129.404 4.97592 129.404C12.9564 124.499 40.5688 123.876 58.9817 144.741C66.1857 152.901 74.997 158.956 86.3171 159.677C100.85 160.605 109.994 155.118 119.512 144.339C137.925 123.474 165.538 124.084 173.518 129.002C173.518 129.002 177.204 122.254 169.224 115.493C169.224 115.493 177.509 115.797 178.423 120.716C178.423 120.716 179.656 106.599 171.981 100.156L171.979 100.158Z" fill="url(#paint5_linear_4003_198)"/>
<path d="M9.28425 112.155C9.28425 112.155 0.999011 112.46 0.0847521 117.379C0.0847521 117.379 0.0847521 117.254 0.0569323 117.019C-0.0682567 119.457 0.0847521 121.12 0.0847521 121.12C0.582979 118.445 3.25747 117.144 5.59939 116.507C6.38972 115.107 7.5531 113.625 9.29816 112.157H9.28425V112.155Z" fill="#00C2E5"/>
<path d="M173.517 125.262C165.536 120.357 137.924 119.735 119.511 140.6C109.993 151.379 100.863 156.865 86.3158 155.937C74.997 155.216 66.1844 149.163 58.9804 141.002C40.5675 120.137 12.9551 120.746 4.97588 125.664C4.97588 125.664 4.55985 124.889 4.31074 123.627C3.67341 126.995 4.97588 129.405 4.97588 129.405C12.9564 124.5 40.5688 123.877 58.9804 144.742C66.1844 152.902 74.997 158.957 86.3158 159.678C100.849 160.606 109.993 155.119 119.511 144.34C137.924 123.475 165.536 124.085 173.517 129.003C173.517 129.003 174.805 126.592 174.182 123.225C173.933 124.486 173.517 125.262 173.517 125.262Z" fill="#00BED9"/>
<path d="M178.435 116.977C177.52 112.072 169.235 111.753 169.235 111.753C170.98 113.235 172.145 114.705 172.934 116.103C175.276 116.741 177.949 118.043 178.449 120.716C178.449 120.716 178.588 119.054 178.476 116.616C178.476 116.851 178.449 116.976 178.449 116.976H178.435V116.977Z" fill="#00C2E5"/>
<path d="M93.5338 139.865C92.8965 139.644 92.3831 139.421 91.9823 139.076C91.1515 138.397 90.6937 137.399 90.6798 136.443C90.6798 136.18 90.7076 136.027 90.7354 135.695L90.8467 134.697L91.0541 132.923V132.881C91.3171 132.839 91.5662 132.77 91.8166 132.715C91.9557 132.688 92.0935 132.66 92.2187 132.618C92.5096 132.535 92.8143 132.425 93.1191 132.313C93.2164 132.285 93.2986 132.244 93.396 132.202C93.6173 132.119 93.826 132.022 94.0333 131.939C94.1307 131.897 94.2268 131.842 94.3381 131.8C94.5594 131.689 94.768 131.593 94.9893 131.467C95.0728 131.426 95.1562 131.384 95.2397 131.328C95.8353 130.982 96.4309 130.607 96.9708 130.178C97.0126 130.15 97.0404 130.122 97.0821 130.08C97.3173 129.901 97.5386 129.706 97.7612 129.498C97.8168 129.443 97.8725 129.401 97.9268 129.347C98.1342 129.153 98.329 128.959 98.5085 128.751C98.5503 128.695 98.6059 128.654 98.6476 128.599C100.046 126.992 100.934 125.038 100.781 122.85C100.809 122.24 100.767 121.617 100.642 120.979C99.2837 113.969 89.1004 114.648 89.1004 114.648C87.5627 114.592 79.0284 114.62 77.7954 120.993C77.0747 124.706 78.7792 127.893 81.4803 130.095C81.522 130.123 81.5638 130.165 81.6055 130.193C81.9381 130.456 82.2845 130.719 82.6588 130.954C82.7145 130.996 82.7701 131.023 82.8245 131.051C83.1988 131.287 83.5731 131.509 83.974 131.716C84.4317 131.952 84.8882 132.16 85.3321 132.354C85.4155 132.382 85.4977 132.423 85.5812 132.451C86.1768 132.686 86.7724 132.867 87.4236 132.963L87.6184 134.696L87.7296 135.693C87.7714 136.026 87.7992 136.178 87.7853 136.442C87.7853 137.384 87.3136 138.396 86.4828 139.075C86.0807 139.407 85.5685 139.629 84.9312 139.864C84.3217 140.085 83.7122 140.28 83.0749 140.432C81.8141 140.736 80.4978 140.902 79.1536 140.93C80.456 141.221 81.8141 141.36 83.1849 141.346C83.8639 141.346 84.5556 141.29 85.2499 141.207C85.9011 141.137 86.6902 141.013 87.4249 140.653C87.5918 140.569 87.7574 140.487 87.9244 140.39C88.7273 139.892 89.7112 139.892 90.5293 140.39C90.695 140.487 90.848 140.583 91.0275 140.653C91.7622 141.013 92.5513 141.123 93.2025 141.207C93.8955 141.29 94.5733 141.332 95.2675 141.346C96.6383 141.346 97.9964 141.221 99.2989 140.93C97.9686 140.916 96.6522 140.75 95.3788 140.432C94.7415 140.28 94.132 140.085 93.5225 139.864H93.5364L93.5338 139.865Z" fill="#1B191A"/>
<path d="M95.5988 119.54C95.5988 120.289 92.8978 120.898 89.5581 120.898C86.2185 120.898 83.5175 120.289 83.5175 119.54C83.5175 118.792 86.2185 118.182 89.5581 118.182C92.8978 118.182 95.5988 118.792 95.5988 119.54Z" fill="white"/>
<path fill-rule="evenodd" clip-rule="evenodd" d="M159.598 62.0051C159.54 62.0443 159.482 62.0822 159.424 62.1202C159.011 62.387 158.573 62.6374 158.107 62.87C157.78 62.9927 157.451 63.1154 157.123 63.2355C156.888 63.3227 156.654 63.4087 156.419 63.4947C156.253 63.5542 156.088 63.6149 155.922 63.6743C155.732 63.7438 155.542 63.8121 155.351 63.8804C155.206 63.9322 155.062 63.9828 154.918 64.0334C154.715 64.1068 154.51 64.1788 154.306 64.2496C154.113 64.3179 153.919 64.385 153.726 64.452C153.453 64.5468 153.178 64.6417 152.904 64.7352C152.629 64.8301 152.356 64.9236 152.083 65.0147C151.928 65.0665 151.773 65.1184 151.618 65.1702C151.308 65.2739 150.998 65.3763 150.688 65.4775C150.679 65.4826 150.669 65.4851 150.66 65.4876C150.626 65.499 150.593 65.5104 150.559 65.5205C150.344 65.5913 150.129 65.6621 149.914 65.7304C149.618 65.8265 149.323 65.9214 149.027 66.0149C148.894 66.0579 148.761 66.0997 148.628 66.1414C148.372 66.2236 148.115 66.3033 147.857 66.3829C147.256 66.5701 146.656 66.7534 146.054 66.933C145.839 66.9975 145.624 67.062 145.409 67.1252C145.194 67.1897 144.979 67.2529 144.764 67.3149C144.42 67.416 144.076 67.5147 143.732 67.6133C142.403 67.9927 141.073 68.3569 139.741 68.7059C139.495 68.7704 139.249 68.8336 139.003 68.8968C138.596 69.003 138.188 69.1055 137.78 69.2079C137.608 69.2509 137.436 69.2939 137.264 69.3356C137.003 69.4014 136.743 69.4646 136.481 69.5278C136.136 69.6125 135.789 69.6947 135.443 69.7769C135.44 69.7782 135.437 69.7782 135.434 69.7795C135.091 69.8604 134.748 69.9413 134.404 70.0197C134.137 70.0817 133.869 70.1436 133.601 70.2031C133.445 70.2385 133.288 70.2739 133.133 70.308C132.731 70.3978 132.331 70.4863 131.929 70.5736C131.824 70.5963 131.72 70.6191 131.615 70.6406C131.279 70.7127 130.944 70.7848 130.606 70.8543C130.224 70.9352 129.841 71.0136 129.459 71.0908C129.257 71.1312 129.055 71.1717 128.852 71.2122C128.377 71.307 127.901 71.4006 127.426 71.4904C127.212 71.5321 126.997 71.5726 126.783 71.6118C126.378 71.6889 125.97 71.7635 125.563 71.8356C125.036 71.9317 124.507 72.0253 123.979 72.1163C123.282 72.2364 122.585 72.3515 121.887 72.4628C121.588 72.5121 121.287 72.5589 120.986 72.6057C120.982 72.6057 120.979 72.607 120.975 72.607C120.582 72.6689 120.188 72.7284 119.794 72.7865C119.687 72.803 119.578 72.8181 119.469 72.8346C119.079 72.8927 118.687 72.9484 118.296 73.0028C117.847 73.066 117.399 73.128 116.95 73.1874C116.502 73.2468 116.053 73.305 115.604 73.3619C115.255 73.4061 114.904 73.4491 114.555 73.4921C114.213 73.5326 113.87 73.5731 113.527 73.6123C113.207 73.6489 112.886 73.6856 112.565 73.7197C112.33 73.7463 112.096 73.7716 111.861 73.7956C111.857 73.7956 111.854 73.7956 111.851 73.7956C111.703 73.8121 111.556 73.8272 111.408 73.8424C110.447 73.9423 109.485 74.0346 108.522 74.1193C108.209 74.1472 107.895 74.1737 107.582 74.2003C107.422 74.2142 107.263 74.2268 107.104 74.2395C106.342 74.3014 105.58 74.3583 104.817 74.4102C104.563 74.4279 104.309 74.4456 104.056 74.462C103.706 74.4848 103.354 74.5063 103.004 74.5265C102.689 74.5455 102.374 74.5632 102.059 74.5809C101.674 74.6011 101.288 74.6214 100.902 74.6403C100.552 74.658 100.2 74.6732 99.8501 74.6884C99.5504 74.701 99.2508 74.7137 98.9511 74.7251C98.7374 74.7326 98.5262 74.7402 98.3125 74.7478C97.7624 74.768 97.2136 74.7845 96.6635 74.7997C96.3234 74.8085 95.9845 74.8174 95.6443 74.8237C95.399 74.83 95.1537 74.8338 94.9083 74.8376C94.6112 74.8427 94.3153 74.8477 94.0194 74.8515C93.7589 74.8553 93.4997 74.8578 93.2392 74.8604C93.0356 74.8629 92.8307 74.8642 92.6259 74.8654C92.4969 74.8667 92.3679 74.8667 92.2402 74.8667C91.7407 74.8692 91.2399 74.8692 90.7392 74.8667C90.6924 74.8667 90.6456 74.8667 90.5975 74.8667C90.5862 74.8667 90.5735 74.8667 90.5609 74.8667C90.5596 74.8667 90.5571 74.8667 90.5545 74.8667C90.5508 74.8667 90.547 74.8667 90.5419 74.8667C90.5406 74.8667 90.5394 74.8667 90.5381 74.8667C90.5381 74.8667 90.5373 74.8667 90.5356 74.8667C89.4531 74.8604 88.372 74.8464 87.2895 74.8249C87.2731 74.8249 87.2579 74.8249 87.2415 74.8249C87.2377 74.8249 87.2352 74.8249 87.2314 74.8249C86.8039 74.8148 86.3778 74.8047 85.9504 74.7921C85.6785 74.7858 85.4054 74.7769 85.1335 74.7681C84.9628 74.763 84.7908 74.7579 84.6188 74.7516C84.0915 74.7326 83.5642 74.7124 83.0369 74.6909C82.1972 74.6568 81.3576 74.6163 80.5179 74.5683C80.0981 74.5442 79.6795 74.5202 79.2597 74.4949C79.0511 74.4823 78.8437 74.4696 78.635 74.4557C78.1368 74.4228 77.6399 74.39 77.1416 74.3545C76.589 74.3166 76.0377 74.2736 75.4851 74.2281C75.2385 74.2091 74.9919 74.1889 74.7453 74.1674C74.4494 74.1434 74.1535 74.1181 73.8589 74.0915C73.563 74.065 73.2671 74.0384 72.9725 74.0119C72.4135 73.96 71.8559 73.9069 71.2982 73.85C70.9391 73.8146 70.5812 73.7779 70.2221 73.7387C69.7441 73.6881 69.2661 73.635 68.7881 73.5819C68.2304 73.5187 67.6728 73.4529 67.1164 73.3859C66.6978 73.3353 66.2805 73.2835 65.8632 73.2291C65.4459 73.176 65.0286 73.1216 64.6113 73.066C64.194 73.0091 63.7768 72.9522 63.3595 72.894C62.9422 72.8358 62.5249 72.7764 62.1088 72.7157C60.9973 72.5538 59.887 72.3819 58.7768 72.201C58.4998 72.1555 58.2217 72.11 57.9447 72.0632C56.8357 71.8786 55.728 71.6851 54.6215 71.4815C53.7907 71.3298 52.9612 71.173 52.1329 71.0111C51.0277 70.7961 49.925 70.5723 48.8224 70.3371C48.4746 70.2638 48.1269 70.1879 47.7791 70.1133C47.2999 70.0083 46.8219 69.9034 46.3439 69.7959C45.9316 69.7036 45.5181 69.61 45.1059 69.5152C44.6937 69.4203 44.2814 69.3242 43.8704 69.2269C43.4746 69.1333 43.0788 69.0384 42.683 68.9423C42.6514 68.9347 42.6211 68.9272 42.5907 68.9196C42.1949 68.8235 41.7979 68.7261 41.4021 68.6275C41.1277 68.5592 40.8533 68.4909 40.5801 68.4214C40.1691 68.3177 39.7582 68.2127 39.3485 68.1065C38.9375 68.0003 38.5278 67.8928 38.1181 67.784C38.1168 67.784 38.1143 67.7815 38.113 67.7802C31.8966 66.1325 25.7332 64.2104 19.6394 62.0203C19.5041 61.9406 19.3713 61.8584 19.2411 61.7762C20.063 60.1804 20.9394 58.6161 21.8701 57.0861C22.6945 55.7305 23.5633 54.4014 24.475 53.1028C25.4879 51.6587 26.5552 50.2512 27.6793 48.8843C62.3263 58.496 100.838 59.7416 136.677 52.5729C140.051 51.8989 143.402 51.1491 146.723 50.3233C147.139 50.2209 147.553 50.1172 147.967 50.011C148.377 49.9086 148.786 49.8023 149.196 49.6961C149.204 49.6936 149.211 49.6911 149.219 49.6898C149.582 49.5962 149.943 49.5001 150.305 49.404C150.604 49.3243 150.902 49.2447 151.198 49.1637C152.279 50.4839 153.313 51.842 154.3 53.2406C154.338 53.2937 154.376 53.3481 154.414 53.4012C155.325 54.6986 156.195 56.0302 157.024 57.3946C157.237 57.7461 157.448 58.1002 157.656 58.4568C158.335 59.6164 158.982 60.7987 159.598 62.0038V62.0051Z" fill="#FF9B57"/>
<path fill-rule="evenodd" clip-rule="evenodd" d="M157.024 57.3958C114.55 72.349 63.8527 72.2212 21.8701 57.0873C22.6946 55.7317 23.5633 54.4027 24.4751 53.104C65.0704 66.7926 113.123 66.8773 154.124 53.3C154.183 53.281 154.242 53.2608 154.3 53.2418C154.338 53.2949 154.376 53.3493 154.414 53.4024C155.325 54.6998 156.195 56.0314 157.024 57.3958Z" fill="#FF9B57"/>
<g opacity="0.5">
<path fill-rule="evenodd" clip-rule="evenodd" d="M151.39 49.1133C151.327 49.131 151.261 49.1487 151.198 49.1651C151.262 49.1474 151.326 49.131 151.39 49.1133Z" fill="white"/>
</g>
</g>
<defs>
<linearGradient id="paint0_linear_4003_198" x1="4.11473" y1="34.423" x2="51.5474" y2="34.423" gradientUnits="userSpaceOnUse">
<stop stop-color="#00C6F1"/>
<stop offset="1" stop-color="#00B0B0"/>
</linearGradient>
<linearGradient id="paint1_linear_4003_198" x1="29.561" y1="11.8311" x2="39.4281" y2="54.2196" gradientUnits="userSpaceOnUse">
<stop stop-color="white"/>
<stop offset="1" stop-color="#00C6F1"/>
</linearGradient>
<linearGradient id="paint2_linear_4003_198" x1="130.312" y1="34.423" x2="185.079" y2="34.423" gradientUnits="userSpaceOnUse">
<stop stop-color="#00B0B0"/>
<stop offset="1" stop-color="#00C6F1"/>
</linearGradient>
<linearGradient id="paint3_linear_4003_198" x1="139.773" y1="11.4935" x2="149.64" y2="53.882" gradientUnits="userSpaceOnUse">
<stop stop-color="white"/>
<stop offset="1" stop-color="#00C6F1"/>
</linearGradient>
<linearGradient id="paint4_linear_4003_198" x1="-7.99468e-05" y1="90.026" x2="178.494" y2="90.026" gradientUnits="userSpaceOnUse">
<stop stop-color="#00C6F1"/>
<stop offset="1" stop-color="#00B0B0"/>
</linearGradient>
<linearGradient id="paint5_linear_4003_198" x1="89.2471" y1="93.7021" x2="89.2471" y2="159.779" gradientUnits="userSpaceOnUse">
<stop stop-color="#82E9FF"/>
<stop offset="0.85" stop-color="#D7F8FF"/>
</linearGradient>
<clipPath id="clip0_4003_198">
<rect width="182.37" height="163.698" fill="white"/>
</clipPath>
</defs>
</svg>
