<svg width="223" height="134" viewBox="0 0 223 134" fill="none" xmlns="http://www.w3.org/2000/svg">
<g clip-path="url(#clip0_6047_2)">
<g style="mix-blend-mode:multiply" opacity="0.19">
<path d="M148.536 100.08V99.2692C148.524 98.818 148.502 98.3339 148.457 97.8056V97.6823C148.411 97.1755 148.366 96.6349 148.288 96.0717C148.288 96.0152 148.277 95.9586 148.265 95.9031C148.243 95.7572 148.22 95.5989 148.198 95.4417C148.186 95.3625 148.175 95.2844 148.164 95.2166C148.164 95.1487 148.141 95.0922 148.13 95.0244C148.096 94.7993 148.051 94.5629 148.005 94.3378C148.005 94.2813 147.983 94.2247 147.971 94.1692C147.971 94.1353 147.96 94.1014 147.949 94.0675C147.892 93.8198 147.836 93.5721 147.779 93.3131C147.757 93.2339 147.734 93.1445 147.723 93.0654C147.666 92.829 147.598 92.5926 147.532 92.3562C147.52 92.2997 147.498 92.2431 147.486 92.1876C147.396 91.906 147.306 91.6244 147.216 91.3315C147.193 91.2523 147.159 91.1855 147.137 91.1064C147.092 90.982 147.046 90.87 147.002 90.7456C146.968 90.6439 146.923 90.5545 146.878 90.4527C146.844 90.3736 146.81 90.2842 146.776 90.205C146.708 90.0365 146.63 89.8669 146.551 89.6983C146.506 89.5853 146.449 89.4845 146.405 89.3715C146.394 89.3376 146.371 89.3149 146.36 89.281C146.315 89.2019 146.281 89.1238 146.236 89.0446C146.146 88.875 146.068 88.7178 145.977 88.5605C145.932 88.4814 145.887 88.4033 145.843 88.3242C145.718 88.1104 145.584 87.9079 145.448 87.7054C145.414 87.6489 145.369 87.5924 145.335 87.5256C145.167 87.2779 144.974 87.0302 144.783 86.7938C144.738 86.7372 144.693 86.6807 144.637 86.6252C144.48 86.434 144.322 86.2531 144.153 86.0733C144.097 86.0054 144.03 85.9489 143.973 85.8821C143.928 85.8369 143.894 85.7917 143.849 85.7475C143.668 85.5676 143.477 85.398 143.286 85.2408C143.049 85.0383 142.847 84.8009 142.656 84.5419C142.61 84.4853 142.576 84.4288 142.532 84.3733C142.352 84.1143 142.194 83.844 142.048 83.5397C142.026 83.4945 142.014 83.4493 141.992 83.4164V83.3938C141.868 83.1235 141.755 82.8306 141.642 82.5376C141.62 82.4698 141.597 82.4133 141.574 82.3465C141.461 82.0196 141.372 81.6825 141.281 81.3331C141.259 81.2539 141.236 81.1645 141.225 81.0741C141.146 80.7585 141.079 80.443 141.022 80.1388C141.022 80.0935 141 80.0483 140.989 80.0041C140.921 79.6434 140.854 79.295 140.797 78.9455C140.741 78.6413 140.696 78.337 140.64 78.0441C140.618 77.9208 140.595 77.8077 140.572 77.6834C140.516 77.3565 140.449 77.0307 140.392 76.7378C140.1 75.3749 139.795 74.0121 139.491 72.6615C138.557 68.5966 137.521 64.5645 136.057 60.6353C135.664 59.5879 135.246 58.5632 134.807 57.5498C134.807 57.5385 134.796 57.5272 134.785 57.5046C134.346 56.5025 133.884 55.523 133.399 54.5548C133.681 54.1273 133.94 53.71 134.199 53.2824C134.289 53.1365 134.39 52.9782 134.469 52.8322C134.706 52.4273 134.931 52.0326 135.156 51.6277C135.246 51.4591 135.347 51.2782 135.437 51.1096C135.651 50.7047 135.855 50.31 136.057 49.9051C136.148 49.7365 136.226 49.5556 136.305 49.3871C136.496 48.9821 136.687 48.5648 136.868 48.1599C136.936 48.0139 136.991 47.8556 137.059 47.7097C137.25 47.2698 137.431 46.8309 137.611 46.392C137.623 46.3581 137.634 46.3242 137.645 46.2903C138.242 44.7476 138.749 43.2048 139.165 41.6734C139.199 41.5604 139.233 41.437 139.267 41.324C139.38 40.8964 139.481 40.4791 139.583 40.0629C139.628 39.8943 139.662 39.7247 139.707 39.5562C139.797 39.1502 139.887 38.7452 139.966 38.3516C140 38.1717 140.034 37.9908 140.079 37.7997C140.158 37.406 140.225 37.0113 140.293 36.6054C140.327 36.4368 140.349 36.2559 140.372 36.0873C140.44 35.6824 140.496 35.2764 140.552 34.8715C140.563 34.7481 140.586 34.6351 140.597 34.5107C140.777 33.1139 140.89 31.7408 140.958 30.3779C140.958 30.232 140.98 30.0963 140.98 29.9504C140.992 29.5783 141.003 29.2186 141.014 28.8578C141.014 28.6666 141.014 28.4642 141.026 28.272V26.6388C141.026 26.3007 141.026 25.9748 141.003 25.648C141.003 25.4455 140.992 25.2431 140.98 25.0395C140.969 24.7127 140.958 24.3869 140.935 24.0714C140.935 23.8802 140.912 23.6993 140.901 23.5081C140.879 23.1813 140.867 22.8442 140.833 22.5173V22.393C140.777 21.6273 140.699 20.8842 140.62 20.1524C140.597 19.9951 140.586 19.8368 140.563 19.6796C140.529 19.3867 140.495 19.0937 140.45 18.8008C140.427 18.621 140.405 18.4288 140.382 18.2489C140.348 17.9673 140.303 17.697 140.259 17.4153C140.236 17.2355 140.202 17.0546 140.18 16.8747C140.134 16.6044 140.089 16.3454 140.045 16.0751C140.011 15.9065 139.988 15.7369 139.955 15.5684C139.909 15.2981 139.864 15.0391 139.809 14.7801C139.786 14.6454 139.752 14.5098 139.729 14.3751C139.673 14.0935 139.616 13.8232 139.56 13.5529V13.4963C139.335 12.4377 139.11 11.4469 138.885 10.5455C138.885 10.5116 138.862 10.4777 138.862 10.4438C138.794 10.1622 138.716 9.88056 138.648 9.61025C138.648 9.57633 138.637 9.55372 138.626 9.5198C138.547 9.23818 138.48 8.96787 138.401 8.70887C138.378 8.62973 138.355 8.56292 138.333 8.49508C138.22 8.10144 138.108 7.71807 137.995 7.36862C137.915 7.13222 137.826 6.89583 137.724 6.67074C137.397 6.00679 136.936 5.43225 136.373 4.98207C136.001 4.67784 135.573 4.43014 135.123 4.25028C134.673 4.07041 134.189 3.95736 133.682 3.92344C124.583 3.23687 116.497 7.71807 110.462 12.6731C109.662 13.337 108.885 14.002 108.165 14.666C107.804 15.0041 107.444 15.3299 107.106 15.6568C102.286 20.285 99.4491 24.4969 99.4491 24.4969L99.8653 24.981C98.9537 24.6315 98.041 24.3057 97.1293 23.9902C96.9721 23.9336 96.8138 23.8884 96.6566 23.8329C95.8343 23.5626 95.0008 23.3036 94.1785 23.0559C94.0768 23.022 93.9761 22.9994 93.8856 22.9655C79.8212 18.9005 65.5759 19.5419 52.4119 24.722L52.6144 24.4856C52.6144 24.4856 37.7401 2.44855 18.3373 3.91316C17.5829 3.96969 16.8737 4.19478 16.2427 4.56581C15.8264 4.81351 15.4431 5.11774 15.1162 5.46616C14.9477 5.64603 14.8007 5.83823 14.666 6.0294C14.3957 6.43435 14.1706 6.87425 14.0237 7.35834C13.9897 7.46009 13.9558 7.58343 13.9219 7.69649C13.7976 8.09013 13.6855 8.50742 13.5499 8.9689C11.1057 17.7751 7.53621 37.7174 18.7526 54.7213C17.0074 58.2128 15.5654 61.8604 14.4286 65.6448C13.258 69.5525 12.965 77.8293 10.7347 82.7278C10.6556 82.9087 10.5662 83.0772 10.4757 83.2458C10.3966 83.4031 10.3185 83.5613 10.228 83.7186C10.1489 83.8645 10.0595 84.0002 9.969 84.1348C9.85595 84.3034 9.74392 84.473 9.61955 84.6302C9.54041 84.732 9.47361 84.8337 9.39447 84.9232C9.19199 85.1709 8.97821 85.396 8.74181 85.5871C4.40656 89.2358 3.56171 95.8908 3.45996 99.6073V101.791C3.45996 101.893 3.45996 101.983 3.47127 102.062V102.298C3.51649 102.039 3.59563 101.803 3.69635 101.578C3.73027 101.498 3.77549 101.432 3.80941 101.353C3.87725 101.206 3.95536 101.06 4.04581 100.935C4.10233 100.856 4.16914 100.789 4.22567 100.71C4.31612 100.597 4.40553 100.474 4.51859 100.372C4.58643 100.304 4.66454 100.237 4.73237 100.181C4.84543 100.079 4.95746 99.9783 5.08183 99.8879C5.16097 99.8314 5.23908 99.7748 5.30691 99.7307C5.44155 99.6402 5.57722 99.5508 5.71187 99.4716C5.7797 99.4264 5.85781 99.3925 5.93695 99.3483C6.09421 99.2692 6.25249 99.19 6.42105 99.1119C6.47758 99.0893 6.54541 99.0554 6.60091 99.0328C6.79208 98.9536 6.97297 98.8755 7.16414 98.819C7.19806 98.8077 7.24328 98.7964 7.2772 98.7851C7.50229 98.7059 7.72738 98.6391 7.95247 98.5826C8.23408 98.5035 8.5157 98.4367 8.78601 98.3801C10.0132 98.1211 10.9598 98.0872 10.9598 98.0872C7.7171 100.835 6.84964 103.572 6.7818 105.632C6.71397 107.693 7.46837 109.066 7.46837 109.066C9.90117 107.569 14.5735 106.567 20.2603 106.792C20.7331 106.814 21.2172 106.837 21.7013 106.871C22.613 106.939 23.5483 107.039 24.5051 107.175C26.0931 107.4 27.7263 107.716 29.3923 108.132C31.5209 108.672 33.6937 109.393 35.8561 110.327C36.9374 110.789 38.0299 111.307 39.0999 111.87C39.6405 112.152 40.1811 112.456 40.7104 112.759C44.4485 114.943 48.0859 117.815 51.3636 121.531C53.931 124.437 56.7348 127.016 59.8655 129.042C60.7545 129.617 61.6785 130.157 62.6241 130.642C64.9891 131.858 67.5113 132.748 70.237 133.266C71.3296 133.468 72.4437 133.615 73.5928 133.682C74.5044 133.738 75.3719 133.761 76.228 133.75C79.5612 133.738 82.5346 133.277 85.2706 132.377C85.653 132.252 86.025 132.106 86.4084 131.959C86.4762 131.937 86.543 131.914 86.6222 131.88C87.0384 131.723 87.4444 131.542 87.8493 131.362C87.9727 131.306 88.0971 131.249 88.2214 131.194C88.5935 131.025 88.9532 130.833 89.314 130.642C89.4599 130.563 89.6182 130.484 89.7641 130.394C90.1023 130.202 90.4291 130.011 90.7662 129.808C90.9348 129.706 91.1044 129.594 91.2842 129.493C91.5998 129.29 91.903 129.088 92.2082 128.884C92.3994 128.76 92.5793 128.625 92.7715 128.49C93.0644 128.288 93.346 128.073 93.6276 127.859C93.8301 127.702 94.0326 127.544 94.2361 127.375C94.3039 127.319 94.382 127.262 94.4499 127.207C94.6184 127.072 94.788 126.936 94.9453 126.802C94.9679 126.779 95.0018 126.757 95.0244 126.723C95.2382 126.543 95.4633 126.34 95.6771 126.148C95.9248 125.934 96.1725 125.72 96.4089 125.494C96.6566 125.269 96.8929 125.033 97.1406 124.797C97.2979 124.651 97.4449 124.504 97.6021 124.358C97.6247 124.335 97.6473 124.312 97.67 124.29C97.7152 124.245 97.7491 124.199 97.7943 124.167C98.0872 123.874 98.3689 123.569 98.6618 123.276C98.8303 123.097 99.0112 122.927 99.1798 122.736C99.6413 122.24 100.103 121.734 100.565 121.204C101.038 120.675 101.511 120.157 101.984 119.662C108.245 113.209 115.62 109.572 122.534 107.793C123.593 107.522 124.652 107.297 125.688 107.105C126.724 106.914 127.748 106.767 128.739 106.666C130.732 106.452 132.636 106.385 134.415 106.441C138.84 106.576 142.433 107.488 144.459 108.738C144.459 108.738 144.482 108.704 144.505 108.648C144.527 108.603 144.55 108.546 144.584 108.479C144.606 108.411 144.64 108.345 144.674 108.254C144.674 108.232 144.686 108.22 144.697 108.198C144.742 108.085 144.787 107.95 144.831 107.804V107.77C144.877 107.635 144.911 107.477 144.945 107.319C144.945 107.285 144.956 107.24 144.967 107.206C145.001 107.06 145.024 106.913 145.046 106.756C145.046 106.699 145.058 106.643 145.069 106.587C145.092 106.43 145.103 106.283 145.114 106.114V105.303C145.114 105.258 145.114 105.202 145.103 105.146C145.103 104.978 145.08 104.808 145.058 104.628C145.058 104.538 145.035 104.437 145.024 104.335C145.001 104.167 144.967 103.986 144.922 103.806C144.899 103.704 144.877 103.592 144.843 103.479C144.798 103.298 144.741 103.118 144.686 102.938C144.652 102.825 144.606 102.713 144.561 102.589C144.493 102.409 144.404 102.217 144.325 102.026C144.268 101.902 144.212 101.778 144.156 101.665C144.054 101.474 143.942 101.282 143.829 101.09C143.75 100.967 143.682 100.843 143.604 100.719C143.47 100.517 143.323 100.314 143.177 100.111C143.086 99.9866 142.997 99.8632 142.895 99.7389C142.715 99.5138 142.513 99.3 142.309 99.0739C142.208 98.9608 142.118 98.8601 142.016 98.747C141.689 98.4202 141.34 98.0831 140.946 97.7562H140.969C141.104 97.7562 142.433 97.8354 143.954 98.2516C144.179 98.3082 144.404 98.3863 144.629 98.4541C144.663 98.4654 144.697 98.4767 144.742 98.488C144.753 98.488 144.776 98.4994 144.787 98.5107C144.956 98.5672 145.137 98.634 145.305 98.7131C145.362 98.7357 145.429 98.7697 145.485 98.7923C145.654 98.8601 145.812 98.9495 145.969 99.0287C146.048 99.0626 146.115 99.1078 146.183 99.152C146.194 99.152 146.217 99.1746 146.228 99.1859C146.352 99.2538 146.476 99.3329 146.589 99.411C146.6 99.411 146.623 99.4336 146.634 99.4449C146.691 99.4901 146.758 99.5241 146.814 99.5683C146.937 99.6587 147.05 99.7594 147.164 99.8612C147.231 99.929 147.31 99.9845 147.377 100.052C147.479 100.154 147.58 100.277 147.67 100.39C147.727 100.47 147.794 100.536 147.85 100.616C147.941 100.75 148.02 100.897 148.087 101.043C148.12 101.122 148.166 101.189 148.2 101.268C148.301 101.493 148.368 101.741 148.425 102V101.764C148.425 101.684 148.425 101.606 148.436 101.493V100.153L148.538 100.074L148.536 100.08Z" fill="#00C5F1"/>
</g>
<path d="M49.4294 21.3557C49.4294 21.3557 34.5983 -0.692643 15.1966 0.770941C13.1924 0.916889 11.4687 2.29105 10.8839 4.21715C8.28256 12.7078 2.69751 37.6617 19.4989 56.6585L49.4407 21.3557H49.4294Z" fill="#C95C3F"/>
<path d="M49.5322 21.3557C49.5322 21.3557 34.7011 -0.692643 15.2993 0.770941C13.2951 0.916889 11.5715 2.29105 10.9867 4.21715C8.38535 12.7078 2.80029 37.6617 19.6017 56.6585L49.5435 21.3557H49.5322Z" fill="url(#paint0_linear_6047_2)"/>
<path d="M15.2993 0.770976C13.2951 0.916923 11.5715 2.29109 10.9867 4.21718C10.8408 4.70127 10.6825 5.2419 10.5139 5.82774C29.7358 4.67866 44.3747 26.4238 44.3747 26.4238L19.1731 56.1415C19.3191 56.3101 19.4547 56.4797 19.6007 56.6482L49.5435 21.3444C49.5435 21.3444 34.7011 -0.692608 15.2993 0.770976Z" fill="#00C3E9"/>
<path style="mix-blend-mode:multiply" d="M44.2718 25.3528C44.2718 25.3528 33.1232 8.78783 18.5408 9.88038C17.032 9.99343 15.7483 11.0295 15.2981 12.4704C13.3392 18.8551 9.14986 37.6052 21.7733 51.8834L44.2728 25.3528H44.2718Z" fill="url(#paint1_linear_6047_2)"/>
<path d="M96.263 21.3557C96.263 21.3557 111.093 -0.692643 130.507 0.770941C132.511 0.916889 134.235 2.29105 134.82 4.21715C137.421 12.7078 143.006 37.6617 126.205 56.6585L96.262 21.3557H96.263Z" fill="#C95C3F"/>
<path d="M96.263 21.3557C96.263 21.3557 111.093 -0.692643 130.507 0.770941C132.511 0.916889 134.235 2.29105 134.82 4.21715C137.421 12.7078 143.006 37.6617 126.205 56.6585L96.262 21.3557H96.263Z" fill="url(#paint2_linear_6047_2)"/>
<path d="M135.564 6.87406C135.305 5.87195 135.046 4.98188 134.809 4.21617C134.224 2.29008 132.501 0.91694 130.497 0.769965C111.083 -0.693619 96.2639 21.3547 96.2639 21.3547L101.433 27.4465C101.567 27.244 116.297 5.49886 135.565 6.87303L135.564 6.87406Z" fill="#00C3E8"/>
<path style="mix-blend-mode:multiply" d="M101.432 25.3528C101.432 25.3528 112.58 8.78783 127.163 9.88038C128.672 9.99343 129.955 11.0295 130.407 12.4704C132.366 18.8551 136.555 37.6052 123.931 51.8834L101.432 25.3528Z" fill="url(#paint3_linear_6047_2)"/>
<path d="M140.09 82.1078C137.984 80.34 137.714 76.0829 137.185 73.6172C136.003 68.1668 134.797 62.7503 132.85 57.5136C126.904 41.5345 114.832 29.5647 99.2026 22.8645C75.0709 12.5269 49.5538 16.3781 29.4192 33.6636C20.5565 41.2755 14.6446 51.3767 11.3002 62.4913C9.83659 67.3445 9.74615 78.9545 5.61337 82.4336C-0.625361 87.6826 0.365437 99.1456 0.365437 99.1456C1.10853 95.1598 7.84266 94.8998 7.84266 94.8998C1.35623 100.384 4.35226 105.88 4.35226 105.88C10.8387 101.893 33.2817 101.387 48.2474 118.346C54.1028 124.978 61.2655 129.899 70.4653 130.485C82.2778 131.24 89.7098 126.78 97.4461 118.019C112.412 101.06 134.855 101.556 141.341 105.553C141.341 105.553 144.337 100.069 137.851 94.5843C137.851 94.5843 144.585 94.832 145.328 98.8301C145.328 98.8301 146.33 87.3558 140.091 82.1191V82.1078H140.09Z" fill="#F47C3F"/>
<path d="M140.09 82.1078C137.984 80.34 137.714 76.0829 137.185 73.6172C136.003 68.1668 134.797 62.7503 132.85 57.5136C126.904 41.5345 114.832 29.5647 99.2026 22.8645C75.0709 12.5269 49.5538 16.3781 29.4192 33.6636C20.5565 41.2755 14.6446 51.3767 11.3002 62.4913C9.83659 67.3445 9.74615 78.9545 5.61337 82.4336C-0.625361 87.6826 0.365437 99.1456 0.365437 99.1456C1.10853 95.1598 7.84266 94.8998 7.84266 94.8998C1.35623 100.384 4.35226 105.88 4.35226 105.88C10.8387 101.893 33.2817 101.387 48.2474 118.346C54.1028 124.978 61.2655 129.899 70.4653 130.485C82.2778 131.24 89.7098 126.78 97.4461 118.019C112.412 101.06 134.855 101.556 141.341 105.553C141.341 105.553 144.337 100.069 137.851 94.5843C137.851 94.5843 144.585 94.832 145.328 98.8301C145.328 98.8301 146.33 87.3558 140.091 82.1191V82.1078H140.09Z" fill="#D66C47"/>
<path d="M145.327 98.8301C144.584 94.833 137.85 94.5853 137.85 94.5853C144.336 100.07 141.34 105.553 141.34 105.553C134.854 101.556 112.412 101.06 97.4459 118.019C89.7097 126.78 82.2777 131.239 70.4652 130.485C61.2644 129.899 54.1027 124.978 48.2473 118.346C33.2815 101.387 10.8385 101.893 4.35212 105.88C4.35212 105.88 1.35712 100.384 7.84355 94.8998C7.84355 94.8998 1.10942 95.1598 0.36632 99.1456C0.36632 99.1456 -0.625505 87.6826 5.61323 82.4347C9.746 78.9556 9.83645 67.3456 11.3 62.4913C12.5077 58.4767 14.0514 54.5937 15.9467 50.9131C16.6148 49.616 17.327 48.3447 18.0835 47.101C18.7536 45.9992 19.4597 44.919 20.2008 43.8635C21.024 42.6897 21.8915 41.5458 22.8052 40.4347C24.794 38.0122 26.9966 35.7449 29.4191 33.6636C49.5536 16.3781 75.0708 12.5269 99.2024 22.8645C108.711 26.9408 116.903 32.9678 123.199 40.6608C124.078 41.7349 124.919 42.8387 125.721 43.9755C125.751 44.0187 125.782 44.0628 125.813 44.106C126.554 45.1605 127.261 46.2428 127.935 47.3518C128.108 47.6375 128.28 47.9253 128.448 48.2152C129 49.1576 129.527 50.1186 130.027 51.0981C131.082 53.1578 132.024 55.2977 132.849 57.5147C134.798 62.7503 136.003 68.1668 137.185 73.6172C137.715 76.0839 137.984 80.34 140.09 82.1078V82.1191C146.329 87.3557 145.327 98.8301 145.327 98.8301Z" fill="url(#paint4_linear_6047_2)"/>
<g style="mix-blend-mode:multiply" opacity="0.05">
<path d="M145.394 96.7581V96.1168C145.281 92.4002 144.447 85.7453 140.112 82.0966C139.966 81.9732 139.819 81.8263 139.684 81.669C139.639 81.6238 139.605 81.5673 139.561 81.5231C139.471 81.41 139.381 81.298 139.302 81.1736C139.257 81.1171 139.223 81.0492 139.189 80.9937C139.11 80.8591 139.032 80.7234 138.964 80.5888C138.941 80.5323 138.907 80.487 138.873 80.4315C138.772 80.2393 138.681 80.0369 138.603 79.8231C138.603 79.8005 138.592 79.7779 138.581 79.7552C138.501 79.5641 138.435 79.3729 138.378 79.1694C138.355 79.1016 138.333 79.0348 138.31 78.9669C138.265 78.8097 138.208 78.6401 138.164 78.4715C138.142 78.4037 138.13 78.3359 138.108 78.268C138.063 78.0769 138.017 77.8857 137.973 77.6935C137.973 77.6596 137.95 77.6143 137.95 77.5804C137.894 77.3327 137.849 77.0963 137.805 76.8486C137.579 75.6656 137.411 74.5176 137.219 73.6049C136.036 68.1545 134.831 62.738 132.883 57.5014C132.106 55.4067 131.205 53.3799 130.226 51.4209C141.431 34.2824 137.691 14.2044 135.248 5.55544C135.226 5.4763 135.203 5.4095 135.192 5.34166C135.079 4.93671 134.967 4.55334 134.854 4.21519C134.268 2.2891 132.545 0.915963 130.54 0.768988C111.126 -0.694596 96.3072 21.3537 96.3072 21.3537L96.7235 21.8378C88.9081 18.8202 80.9694 17.2888 73.155 17.187V130.55C83.47 130.505 90.3501 126.102 97.4892 118.006C112.455 101.047 134.898 101.543 141.384 105.54C141.384 105.54 141.407 105.506 141.43 105.449C141.768 104.74 143.907 99.6606 137.894 94.5596C137.894 94.5596 139.302 94.6162 140.9 95.055C141.125 95.1116 141.351 95.1897 141.577 95.2575C141.61 95.2688 141.644 95.2801 141.69 95.2914C141.881 95.3593 142.072 95.4261 142.253 95.5052C142.309 95.5278 142.376 95.5618 142.433 95.5844C142.601 95.6522 142.76 95.7416 142.917 95.8208C142.996 95.8547 143.064 95.8999 143.131 95.9451C143.277 96.0243 143.412 96.1137 143.536 96.2041C143.615 96.2607 143.693 96.3059 143.761 96.3614C143.884 96.4518 143.997 96.5526 144.11 96.6543C144.178 96.7221 144.256 96.7776 144.324 96.8455C144.426 96.9472 144.526 97.0706 144.617 97.1836C144.673 97.2628 144.74 97.3296 144.797 97.4087C144.887 97.5433 144.965 97.6903 145.033 97.8363C145.067 97.9154 145.112 97.9822 145.146 98.0614C145.248 98.2864 145.315 98.5341 145.371 98.7932V98.5341C145.371 98.455 145.371 98.3769 145.382 98.2638V98.2186C145.382 98.1282 145.382 98.0274 145.394 97.9144V96.7201V96.754V96.7581Z" fill="#4F332C"/>
</g>
<path d="M54.7554 73.1516C55.8294 68.5995 53.0112 64.0392 48.4591 62.9641C43.907 61.89 39.3466 64.7093 38.2726 69.2604C37.1975 73.8125 40.0167 78.3728 44.5689 79.4479C49.121 80.522 53.6813 77.7027 54.7554 73.1516Z" fill="#1B191A"/>
<path d="M51.9967 69.2594C51.9967 70.7682 50.7695 71.9954 49.2607 71.9954C47.7519 71.9954 46.5237 70.7682 46.5237 69.2594C46.5237 67.7506 47.7509 66.5234 49.2607 66.5234C50.7705 66.5234 51.9967 67.7506 51.9967 69.2594Z" fill="white"/>
<path d="M107.429 73.161C108.507 68.6099 105.692 64.0465 101.142 62.9683C96.5908 61.8901 92.0274 64.7053 90.9493 69.2553C89.8711 73.8064 92.6862 78.3698 97.2363 79.448C101.787 80.5262 106.351 77.711 107.429 73.161Z" fill="#1B191A"/>
<path d="M104.663 69.2594C104.663 70.7682 103.436 71.9954 101.926 71.9954C100.416 71.9954 99.1902 70.7682 99.1902 69.2594C99.1902 67.7506 100.417 66.5234 101.926 66.5234C103.435 66.5234 104.663 67.7506 104.663 69.2594Z" fill="white"/>
<path d="M140.09 82.1077C138.761 80.9936 138.164 78.8877 137.771 76.8608C100.024 84.7769 73.0995 104.732 73.0995 104.732C47.864 81.0841 16.7505 79.4961 7.59488 79.5866C7.05426 80.7696 6.41291 81.7603 5.60198 82.4469C-0.625446 87.6825 0.365351 99.1456 0.365351 99.1456C1.10845 95.1587 7.84258 94.8997 7.84258 94.8997C1.35615 100.383 4.35218 105.879 4.35218 105.879C10.8386 101.892 33.2816 101.386 48.2474 118.345C54.1027 124.977 61.2644 129.898 70.4653 130.484C82.2777 131.239 89.7097 126.779 97.446 118.018C112.412 101.059 134.855 101.555 141.341 105.552C141.341 105.552 144.337 100.067 137.851 94.5719C137.851 94.5719 144.585 94.8196 145.328 98.8177C145.328 98.8177 146.33 87.3433 140.091 82.1067L140.09 82.1077Z" fill="url(#paint5_linear_6047_2)"/>
<path d="M7.85383 91.8599C7.85383 91.8599 1.1197 92.1076 0.3766 96.1057C0.3766 96.1057 0.3766 96.0039 0.353988 95.8128C0.252236 97.7944 0.3766 99.1459 0.3766 99.1459C0.781552 96.9721 2.95534 95.9145 4.85883 95.3965C5.5012 94.2587 6.44677 93.0542 7.86513 91.8609H7.85383V91.8599Z" fill="#00C2E5"/>
<path d="M141.34 102.513C134.854 98.526 112.411 98.0203 97.4451 114.979C89.7088 123.74 82.2881 128.2 70.4644 127.445C61.2645 126.859 54.1018 121.939 48.2464 115.306C33.2807 98.3472 10.8377 98.8426 4.3523 102.84C4.3523 102.84 4.01415 102.21 3.81167 101.184C3.29366 103.921 4.3523 105.88 4.3523 105.88C10.8387 101.893 33.2817 101.387 48.2464 118.346C54.1018 124.978 61.2645 129.9 70.4644 130.485C82.2768 131.24 89.7088 126.78 97.4451 118.019C112.411 101.061 134.854 101.556 141.34 105.553C141.34 105.553 142.388 103.594 141.881 100.857C141.678 101.882 141.34 102.513 141.34 102.513Z" fill="#00BED9"/>
<path d="M145.337 95.7785C144.594 91.7917 137.86 91.5327 137.86 91.5327C139.278 92.7373 140.225 93.9316 140.866 95.0683C142.77 95.5864 144.943 96.645 145.349 98.8177C145.349 98.8177 145.462 97.4662 145.371 95.4846C145.371 95.6758 145.349 95.7775 145.349 95.7775H145.337V95.7785Z" fill="#00C2E5"/>
<path d="M76.3309 114.382C75.8129 114.202 75.3956 114.021 75.0698 113.741C74.3946 113.189 74.0225 112.378 74.0112 111.601C74.0112 111.387 74.0338 111.263 74.0564 110.992L74.1469 110.181L74.3154 108.739V108.705C74.5292 108.672 74.7317 108.615 74.9352 108.571C75.0482 108.548 75.1603 108.526 75.262 108.492C75.4984 108.424 75.7461 108.334 75.9938 108.244C76.073 108.221 76.1398 108.187 76.2189 108.154C76.3988 108.086 76.5683 108.008 76.7369 107.94C76.816 107.906 76.8942 107.861 76.9846 107.827C77.1645 107.736 77.3341 107.658 77.5139 107.556C77.5818 107.522 77.6496 107.489 77.7174 107.443C78.2015 107.162 78.6856 106.857 79.1245 106.508C79.1584 106.485 79.181 106.463 79.2149 106.429C79.4061 106.283 79.586 106.125 79.7669 105.956C79.8121 105.911 79.8573 105.877 79.9015 105.833C80.0701 105.675 80.2283 105.517 80.3743 105.349C80.4082 105.303 80.4534 105.27 80.4873 105.225C81.6241 103.919 82.3456 102.331 82.2212 100.552C82.2438 100.057 82.2099 99.5498 82.1082 99.0318C81.0043 93.3337 72.7275 93.8856 72.7275 93.8856C71.4777 93.8404 64.5411 93.863 63.539 99.0431C62.9531 102.061 64.3386 104.651 66.534 106.441C66.5679 106.464 66.6018 106.498 66.6357 106.52C66.906 106.734 67.1876 106.948 67.4919 107.139C67.5371 107.173 67.5823 107.196 67.6265 107.218C67.9307 107.409 68.235 107.59 68.5608 107.759C68.9328 107.95 69.3039 108.12 69.6646 108.277C69.7325 108.299 69.7993 108.333 69.8671 108.356C70.3512 108.547 70.8353 108.694 71.3646 108.772L71.5229 110.18L71.6133 110.991C71.6473 111.262 71.6699 111.385 71.6586 111.6C71.6586 112.365 71.2752 113.188 70.5999 113.74C70.2731 114.01 69.8568 114.19 69.3388 114.381C68.8434 114.561 68.348 114.719 67.83 114.842C66.8053 115.09 65.7354 115.225 64.6428 115.247C65.7014 115.484 66.8053 115.597 67.9194 115.586C68.4714 115.586 69.0336 115.54 69.5978 115.472C70.1271 115.416 70.7685 115.315 71.3656 115.022C71.5013 114.954 71.6359 114.888 71.7716 114.809C72.4243 114.404 73.2239 114.404 73.8889 114.809C74.0235 114.888 74.1479 114.966 74.2938 115.022C74.891 115.315 75.5323 115.405 76.0616 115.472C76.6249 115.54 77.1758 115.574 77.74 115.586C78.8542 115.586 79.958 115.484 81.0167 115.247C79.9354 115.236 78.8655 115.101 77.8305 114.842C77.3125 114.719 76.8171 114.561 76.3217 114.381H76.333L76.3309 114.382Z" fill="#1B191A"/>
<path d="M78.0093 97.8622C78.0093 98.4706 75.8139 98.966 73.0995 98.966C70.3851 98.966 68.1897 98.4706 68.1897 97.8622C68.1897 97.2537 70.3851 96.7583 73.0995 96.7583C75.8139 96.7583 78.0093 97.2537 78.0093 97.8622Z" fill="white"/>
<path fill-rule="evenodd" clip-rule="evenodd" d="M130.027 51.0985C129.98 51.1304 129.933 51.1612 129.885 51.192C129.55 51.4089 129.194 51.6124 128.815 51.8015C128.549 51.9012 128.282 52.0009 128.016 52.0986C127.825 52.1695 127.634 52.2394 127.443 52.3093C127.309 52.3576 127.174 52.4069 127.039 52.4552C126.885 52.5117 126.73 52.5672 126.575 52.6227C126.458 52.6649 126.34 52.706 126.223 52.7471C126.058 52.8067 125.891 52.8653 125.726 52.9229C125.569 52.9784 125.411 53.0328 125.254 53.0873C125.032 53.1644 124.809 53.2415 124.586 53.3175C124.363 53.3946 124.141 53.4707 123.919 53.5447C123.793 53.5868 123.667 53.6289 123.541 53.6711C123.289 53.7554 123.037 53.8386 122.785 53.9208C122.778 53.925 122.77 53.927 122.763 53.9291C122.735 53.9383 122.708 53.9476 122.68 53.9558C122.506 54.0133 122.331 54.0709 122.156 54.1264C121.916 54.2045 121.675 54.2816 121.435 54.3577C121.327 54.3926 121.219 54.4265 121.111 54.4604C120.902 54.5272 120.694 54.592 120.484 54.6567C119.996 54.8089 119.508 54.9579 119.018 55.1038C118.844 55.1563 118.669 55.2087 118.494 55.2601C118.32 55.3125 118.145 55.3639 117.97 55.4142C117.691 55.4965 117.411 55.5766 117.131 55.6568C116.051 55.9651 114.97 56.2611 113.888 56.5448C113.687 56.5972 113.488 56.6486 113.287 56.7C112.956 56.7863 112.626 56.8696 112.294 56.9528C112.154 56.9878 112.014 57.0227 111.874 57.0567C111.662 57.1101 111.451 57.1615 111.238 57.2129C110.957 57.2817 110.676 57.3485 110.394 57.4154C110.392 57.4164 110.389 57.4164 110.387 57.4174C110.108 57.4832 109.829 57.549 109.549 57.6127C109.332 57.6631 109.115 57.7134 108.897 57.7617C108.77 57.7905 108.643 57.8193 108.516 57.847C108.19 57.92 107.865 57.9919 107.538 58.0629C107.453 58.0814 107.368 58.0999 107.283 58.1173C107.01 58.1759 106.737 58.2345 106.463 58.291C106.152 58.3568 105.841 58.4205 105.531 58.4832C105.366 58.5161 105.202 58.549 105.037 58.5819C104.651 58.659 104.264 58.735 103.878 58.808C103.704 58.8419 103.53 58.8748 103.356 58.9067C103.026 58.9694 102.695 59.03 102.364 59.0886C101.935 59.1667 101.506 59.2428 101.076 59.3168C100.51 59.4144 99.9435 59.5079 99.3762 59.5984C99.1326 59.6385 98.888 59.6765 98.6434 59.7145C98.6403 59.7145 98.6382 59.7156 98.6352 59.7156C98.3155 59.7659 97.9948 59.8142 97.6752 59.8615C97.5878 59.8749 97.4994 59.8872 97.411 59.9006C97.0935 59.9478 96.7748 59.9931 96.4572 60.0373C96.0924 60.0887 95.7285 60.139 95.3637 60.1873C94.9988 60.2356 94.6339 60.2829 94.2691 60.3292C93.9854 60.3651 93.7007 60.4001 93.417 60.435C93.1385 60.4679 92.86 60.5008 92.5814 60.5327C92.3214 60.5625 92.0603 60.5923 91.7993 60.62C91.6081 60.6416 91.418 60.6622 91.2268 60.6817C91.2237 60.6817 91.2216 60.6817 91.2186 60.6817C91.0983 60.6951 90.9791 60.7074 90.8588 60.7197C90.0777 60.8009 89.2956 60.876 88.5134 60.9448C88.2585 60.9674 88.0036 60.989 87.7487 61.0106C87.6192 61.0219 87.4897 61.0322 87.3602 61.0425C86.7415 61.0928 86.1217 61.1391 85.502 61.1812C85.2954 61.1956 85.0888 61.21 84.8832 61.2233C84.5985 61.2418 84.3128 61.2593 84.0281 61.2758C83.7722 61.2912 83.5163 61.3056 83.2603 61.32C82.9469 61.3364 82.6334 61.3528 82.3199 61.3683C82.0352 61.3827 81.7495 61.395 81.4648 61.4073C81.2212 61.4176 80.9776 61.4279 80.734 61.4371C80.5603 61.4433 80.3887 61.4495 80.215 61.4556C79.7679 61.4721 79.3218 61.4854 78.8747 61.4978C78.5982 61.505 78.3228 61.5122 78.0463 61.5173C77.8469 61.5224 77.6475 61.5255 77.4481 61.5286C77.2066 61.5327 76.9661 61.5368 76.7256 61.5399C76.5139 61.543 76.3032 61.545 76.0914 61.5471C75.926 61.5492 75.7595 61.5502 75.593 61.5512C75.4881 61.5522 75.3833 61.5522 75.2795 61.5522C74.8735 61.5543 74.4665 61.5543 74.0595 61.5522C74.0215 61.5522 73.9834 61.5522 73.9444 61.5522C73.9351 61.5522 73.9248 61.5522 73.9146 61.5522C73.9135 61.5522 73.9115 61.5522 73.9094 61.5522C73.9063 61.5522 73.9033 61.5522 73.8991 61.5522C73.8981 61.5522 73.8971 61.5522 73.8961 61.5522C73.8961 61.5522 73.8954 61.5522 73.894 61.5522C73.0142 61.5471 72.1354 61.5358 71.2556 61.5183C71.2423 61.5183 71.23 61.5183 71.2166 61.5183C71.2135 61.5183 71.2115 61.5183 71.2084 61.5183C70.861 61.5101 70.5146 61.5019 70.1672 61.4916C69.9462 61.4865 69.7242 61.4793 69.5033 61.4721C69.3645 61.468 69.2247 61.4639 69.0849 61.4587C68.6563 61.4433 68.2278 61.4268 67.7992 61.4094C67.1167 61.3816 66.4342 61.3487 65.7518 61.3097C65.4106 61.2902 65.0704 61.2706 64.7291 61.2501C64.5595 61.2398 64.391 61.2295 64.2214 61.2182C63.8164 61.1915 63.4125 61.1648 63.0076 61.136C62.5584 61.1052 62.1103 61.0702 61.6612 61.0332C61.4607 61.0178 61.2603 61.0013 61.0599 60.9839C60.8194 60.9643 60.5789 60.9438 60.3394 60.9222C60.0989 60.9006 59.8584 60.879 59.6189 60.8574C59.1646 60.8153 58.7114 60.7721 58.2581 60.7259C57.9662 60.6971 57.6754 60.6673 57.3835 60.6354C56.995 60.5943 56.6064 60.5512 56.2179 60.508C55.7647 60.4566 55.3114 60.4032 54.8592 60.3487C54.519 60.3076 54.1798 60.2654 53.8406 60.2212C53.5015 60.1781 53.1623 60.1339 52.8231 60.0887C52.484 60.0424 52.1448 59.9962 51.8056 59.9489C51.4664 59.9016 51.1273 59.8533 50.7891 59.804C49.8857 59.6724 48.9833 59.5326 48.0809 59.3856C47.8558 59.3486 47.6297 59.3116 47.4046 59.2736C46.5032 59.1236 45.6028 58.9663 44.7035 58.8008C44.0283 58.6775 43.354 58.55 42.6808 58.4185C41.7825 58.2438 40.8863 58.0618 39.99 57.8707C39.7074 57.8111 39.4248 57.7494 39.1421 57.6888C38.7526 57.6034 38.3641 57.5181 37.9756 57.4308C37.6405 57.3557 37.3044 57.2797 36.9694 57.2026C36.6343 57.1255 36.2992 57.0474 35.9652 56.9683C35.6435 56.8922 35.3218 56.8151 35.0001 56.737C34.9744 56.7308 34.9497 56.7247 34.9251 56.7185C34.6034 56.6404 34.2806 56.5613 33.9589 56.4811C33.7359 56.4256 33.5129 56.3701 33.2909 56.3136C32.9568 56.2293 32.6228 56.144 32.2898 56.0576C31.9558 55.9713 31.6227 55.8839 31.2897 55.7955C31.2887 55.7955 31.2867 55.7935 31.2856 55.7925C26.233 54.4532 21.2235 52.891 16.2705 51.1108C16.1606 51.0461 16.0526 50.9793 15.9468 50.9125C16.6148 49.6154 17.3271 48.344 18.0836 47.1004C18.7537 45.9986 19.4598 44.9184 20.2008 43.8628C21.0241 42.6891 21.8916 41.5451 22.8053 40.4341C50.9659 48.2464 82.2675 49.2588 111.397 43.4322C114.139 42.8844 116.863 42.2749 119.562 41.6037C119.9 41.5205 120.237 41.4362 120.573 41.3499C120.906 41.2666 121.239 41.1803 121.573 41.0939C121.579 41.0919 121.585 41.0898 121.591 41.0888C121.886 41.0127 122.18 40.9346 122.474 40.8565C122.716 40.7918 122.959 40.727 123.2 40.6612C124.078 41.7342 124.919 42.8381 125.721 43.9748C125.752 44.018 125.782 44.0622 125.813 44.1054C126.554 45.1599 127.261 46.2422 127.935 47.3512C128.108 47.6369 128.28 47.9247 128.448 48.2145C129 49.157 129.527 50.118 130.027 51.0975V51.0985Z" fill="#FF9B57"/>
<path fill-rule="evenodd" clip-rule="evenodd" d="M127.935 47.3521C93.4128 59.5058 52.2064 59.402 18.0835 47.1013C18.7536 45.9995 19.4597 44.9193 20.2008 43.8638C53.1961 54.9897 92.2525 55.0585 125.578 44.0231C125.626 44.0077 125.673 43.9912 125.721 43.9758C125.751 44.019 125.782 44.0632 125.813 44.1063C126.554 45.1608 127.261 46.2431 127.935 47.3521Z" fill="#FF9B57"/>
<g opacity="0.5">
<path fill-rule="evenodd" clip-rule="evenodd" d="M123.356 40.6201C123.305 40.6345 123.251 40.649 123.199 40.6623C123.252 40.6479 123.303 40.6345 123.356 40.6201Z" fill="white"/>
</g>
</g>
<g clip-path="url(#clip1_6047_2)">
<path d="M211.963 65.0578C211.963 86.8431 194.236 104.566 172.45 104.566C150.665 104.566 132.947 86.8431 132.947 65.0578C132.947 43.2726 150.665 25.5449 172.45 25.5449C194.236 25.5449 211.963 43.2726 211.963 65.0578Z" fill="#FB6B05"/>
<path d="M207.435 61.8205C207.435 62.242 207.43 62.6545 207.408 63.0714C206.852 78.916 195.706 92.1064 180.848 95.7739C178.153 96.4419 175.347 96.7961 172.455 96.7961C169.783 96.7961 167.178 96.4913 164.676 95.9219C162.08 95.3345 159.596 94.4513 157.251 93.3125C151.329 90.4475 146.339 85.9596 142.85 80.427C141.81 78.777 140.9 77.0285 140.147 75.2082C138.425 71.0789 137.479 66.5551 137.479 61.816C137.479 60.7086 137.533 59.6102 137.636 58.5297C138.968 44.2991 148.867 32.512 162.107 28.3962C165.375 27.3874 168.85 26.8359 172.455 26.8359C174.67 26.8359 176.835 27.0422 178.938 27.4457C180.893 27.8089 182.789 28.3379 184.61 29.0104C190.81 31.3194 196.19 35.3321 200.163 40.4836C201.763 42.555 203.135 44.8057 204.234 47.2089C206.292 51.6565 207.439 56.6062 207.439 61.816L207.435 61.8205Z" fill="#FFCD69"/>
<path d="M172.45 22.3076C150.665 22.3076 132.947 40.0353 132.947 61.8205C132.947 83.6058 150.665 101.329 172.455 101.329C194.245 101.329 211.968 83.6102 211.968 61.8205C211.968 40.0308 194.236 22.3076 172.45 22.3076ZM172.45 96.7962C153.163 96.7962 137.475 81.1085 137.475 61.8205C137.475 42.5326 153.163 26.8359 172.45 26.8359C191.738 26.8359 207.431 42.5326 207.431 61.816C207.431 81.0995 191.734 96.7917 172.45 96.7917V96.7962Z" fill="#FBB406"/>
<path d="M187.43 68.1421C186.964 68.5949 186.748 69.254 186.86 69.8951L189.371 84.5023C189.645 86.1208 187.945 87.3583 186.497 86.5916L173.37 79.6915C172.796 79.3866 172.11 79.3866 171.531 79.6915L158.404 86.5916C156.956 87.3538 155.256 86.1208 155.539 84.5023L158.045 69.8951C158.157 69.254 157.942 68.5949 157.476 68.1421L146.863 57.7942C145.684 56.6464 146.334 54.6558 147.957 54.4226L162.632 52.2885C163.277 52.1988 163.838 51.7908 164.12 51.208L170.684 37.9145C171.41 36.4439 173.504 36.4439 174.23 37.9145L180.794 51.208C181.086 51.7908 181.642 52.1988 182.283 52.2885L196.957 54.4226C198.58 54.6558 199.23 56.6509 198.056 57.7942L187.434 68.1421H187.43Z" fill="#F7A41E"/>
<g style="mix-blend-mode:soft-light" opacity="0.49">
<path d="M200.158 40.4884L157.247 93.3127C151.324 90.4478 146.334 85.9598 142.846 80.4272L184.605 29.0151C190.806 31.3241 196.186 35.3368 200.158 40.4884Z" fill="#FFDFAB"/>
</g>
<g style="mix-blend-mode:soft-light" opacity="0.49">
<path d="M178.938 27.4457L140.143 75.2127C138.421 71.0834 137.475 66.5596 137.475 61.8205C137.475 60.7131 137.529 59.6147 137.632 58.5341L162.103 28.3962C165.371 27.3874 168.846 26.8359 172.45 26.8359C174.665 26.8359 176.831 27.0422 178.934 27.4457H178.938Z" fill="#FFDFAB"/>
</g>
<g style="mix-blend-mode:soft-light" opacity="0.49">
<path d="M207.435 61.8206C207.435 62.242 207.43 62.6545 207.408 63.0714L180.848 95.7739C178.153 96.442 175.347 96.7962 172.455 96.7962C169.783 96.7962 167.178 96.4913 164.676 95.9219L204.234 47.2134C206.292 51.661 207.439 56.6108 207.439 61.8206H207.435Z" fill="#FFDFAB"/>
</g>
<g style="mix-blend-mode:overlay" opacity="0.54">
<path d="M161.699 30.6785C145.612 36.498 136.363 52.9793 139.797 69.7655C140.43 72.8546 145.155 71.5454 144.523 68.4608C141.654 54.4454 149.54 40.2731 162.999 35.4041C165.945 34.337 164.672 29.6025 161.695 30.6785H161.699Z" fill="white"/>
</g>
<g style="mix-blend-mode:overlay" opacity="0.54">
<path d="M145.285 74.3071C142.133 74.3071 142.124 79.2076 145.285 79.2076C148.446 79.2076 148.446 74.3071 145.285 74.3071Z" fill="white"/>
</g>
<path d="M138.354 59.0856C133.776 61.6726 133.377 65.8871 133.377 65.8871C133.377 65.8871 132.978 61.6726 128.4 59.0856C132.978 56.4986 133.377 52.2842 133.377 52.2842C133.377 52.2842 133.776 56.4986 138.354 59.0856Z" fill="white"/>
<path d="M135.95 43.7208C129.01 47.6438 128.4 54.0373 128.4 54.0373C128.4 54.0373 127.791 47.6483 120.85 43.7208C127.791 39.7977 128.4 33.4043 128.4 33.4043C128.4 33.4043 129.01 39.7933 135.95 43.7208Z" fill="#F06600"/>
<path d="M124.222 61.2378C125.398 61.2378 126.351 60.2843 126.351 59.1082C126.351 57.932 125.398 56.9785 124.222 56.9785C123.046 56.9785 122.092 57.932 122.092 59.1082C122.092 60.2843 123.046 61.2378 124.222 61.2378Z" fill="#FDE00D"/>
<path d="M128.082 72.1504C129.659 72.1504 130.938 70.8718 130.938 69.2945C130.938 67.7171 129.659 66.4385 128.082 66.4385C126.505 66.4385 125.226 67.7171 125.226 69.2945C125.226 70.8718 126.505 72.1504 128.082 72.1504Z" fill="#FBB922"/>
<path d="M140.3 40.2553C141.372 40.2553 142.241 39.3861 142.241 38.3139C142.241 37.2417 141.372 36.3726 140.3 36.3726C139.227 36.3726 138.358 37.2417 138.358 38.3139C138.358 39.3861 139.227 40.2553 140.3 40.2553Z" fill="white"/>
<path d="M222.993 68.2409C218.231 70.931 217.814 75.3159 217.814 75.3159C217.814 75.3159 217.397 70.931 212.636 68.2409C217.397 65.5509 217.814 61.166 217.814 61.166C217.814 61.166 218.231 65.5509 222.993 68.2409Z" fill="#F06600"/>
<path d="M214.622 51.625C208.762 54.9383 208.247 60.3364 208.247 60.3364C208.247 60.3364 207.735 54.9383 201.871 51.625C207.731 48.3117 208.247 42.9136 208.247 42.9136C208.247 42.9136 208.758 48.3117 214.622 51.625Z" fill="#F06600"/>
<path d="M220.213 57.9513C221.642 57.9513 222.8 56.7931 222.8 55.3643C222.8 53.9356 221.642 52.7773 220.213 52.7773C218.784 52.7773 217.626 53.9356 217.626 55.3643C217.626 56.7931 218.784 57.9513 220.213 57.9513Z" fill="#F06600"/>
<path d="M218.249 50.1725C219.066 50.1725 219.729 49.5101 219.729 48.6929C219.729 47.8758 219.066 47.2134 218.249 47.2134C217.432 47.2134 216.77 47.8758 216.77 48.6929C216.77 49.5101 217.432 50.1725 218.249 50.1725Z" fill="#FBB922"/>
</g>
<defs>
<linearGradient id="paint0_linear_6047_2" x1="3.65234" y1="28.6798" x2="42.205" y2="28.6798" gradientUnits="userSpaceOnUse">
<stop stop-color="#00C6F1"/>
<stop offset="1" stop-color="#00B0B0"/>
</linearGradient>
<linearGradient id="paint1_linear_6047_2" x1="24.3345" y1="10.3172" x2="32.3544" y2="44.77" gradientUnits="userSpaceOnUse">
<stop stop-color="white"/>
<stop offset="1" stop-color="#00C6F1"/>
</linearGradient>
<linearGradient id="paint2_linear_6047_2" x1="106.223" y1="28.6798" x2="150.737" y2="28.6798" gradientUnits="userSpaceOnUse">
<stop stop-color="#00B0B0"/>
<stop offset="1" stop-color="#00C6F1"/>
</linearGradient>
<linearGradient id="paint3_linear_6047_2" x1="113.913" y1="10.0428" x2="121.933" y2="44.4956" gradientUnits="userSpaceOnUse">
<stop stop-color="white"/>
<stop offset="1" stop-color="#00C6F1"/>
</linearGradient>
<linearGradient id="paint4_linear_6047_2" x1="0.307735" y1="73.8731" x2="145.385" y2="73.8731" gradientUnits="userSpaceOnUse">
<stop stop-color="#00C6F1"/>
<stop offset="1" stop-color="#00B0B0"/>
</linearGradient>
<linearGradient id="paint5_linear_6047_2" x1="72.8467" y1="76.8608" x2="72.8467" y2="130.567" gradientUnits="userSpaceOnUse">
<stop stop-color="#82E9FF"/>
<stop offset="0.85" stop-color="#D7F8FF"/>
</linearGradient>
<clipPath id="clip0_6047_2">
<rect width="148.228" height="133.052" fill="white" transform="translate(0.307861 0.701172)"/>
</clipPath>
<clipPath id="clip1_6047_2">
<rect width="102.143" height="82.2539" fill="white" transform="translate(120.85 22.3076)"/>
</clipPath>
</defs>
</svg>
