<svg width="60" height="60" viewBox="0 0 60 60" fill="none" xmlns="http://www.w3.org/2000/svg">
<path d="M0 30C0 13.4315 13.4315 0 30 0C46.5685 0 60 13.4315 60 30C60 46.5685 46.5685 60 30 60C13.4315 60 0 46.5685 0 30Z" fill="url(#paint0_linear_4003_286)"/>
<path d="M30.0038 35.9233C33.2751 35.9233 35.9271 33.2713 35.9271 30C35.9271 26.7286 33.2751 24.0767 30.0038 24.0767C26.7324 24.0767 24.0804 26.7286 24.0804 30C24.0804 33.2713 26.7324 35.9233 30.0038 35.9233Z" fill="#00B0B0"/>
<path d="M49.995 21.2554C50.0703 23.218 49.2863 25.1159 47.8478 26.4531C47.3016 26.9012 47.0042 27.5844 47.0481 28.2893C47.4702 35.7009 47.6034 42.6682 47.6034 42.6682C47.6492 43.801 46.7681 44.7563 45.6353 44.802C44.5026 44.8477 43.5473 43.9666 43.5015 42.8339C43.4993 42.7786 43.4993 42.7234 43.5015 42.6682C43.5015 42.6682 43.546 40.5654 43.657 37.4335C43.7385 34.879 43.8718 31.636 44.0569 28.2893C44.1002 27.586 43.806 26.9041 43.2646 26.4531C41.3443 24.884 40.7272 21.7867 41.3321 19.3673C41.9097 16.9462 43.583 15.1914 45.5525 15.1914C48.0033 15.1914 49.995 17.9087 49.995 21.2554Z" fill="#FF9B57"/>
<path d="M42.3169 27.601C39.7392 25.4661 39.037 21.3724 40.1179 18.2051C34.4856 13.3546 26.2025 13.1869 20.3784 17.8053C20.3784 23.6133 20.5297 24.1189 19.7565 25.4908C19.3295 26.2492 18.7085 26.8804 17.9572 27.3196C17.8519 27.3851 17.7506 27.4569 17.6537 27.5343C17.3026 28.5875 17.9537 32.0895 18.1572 40.0473C23.6864 46.5918 33.4741 47.4148 40.0186 41.8855C40.7771 41.2446 41.4724 40.5324 42.0948 39.7586C42.1762 37.0265 42.3317 32.6876 42.5835 28.2007C42.5967 27.9694 42.4974 27.746 42.3169 27.601ZM30.0038 37.4041C25.9146 37.4041 22.5997 34.0891 22.5997 29.9999C22.5997 25.9107 25.9146 22.5958 30.0038 22.5958C34.093 22.5958 37.408 25.9107 37.408 29.9999C37.4012 34.0863 34.0902 37.3973 30.0038 37.4041Z" fill="#00B0B0"/>
<path d="M18.4681 24.7653C17.6018 26.2905 16.469 25.9647 16.1876 27.2827C16.0898 27.8223 16.05 28.3709 16.0692 28.919C16.1654 30.3554 16.4394 34.4425 16.5949 37.8484C16.6781 37.8484 16.6734 42.4511 16.6615 42.5796C16.395 45.4599 12.6114 45.6894 12.219 42.5796C12.0191 41.047 12.2634 35.8863 12.841 28.9264C12.881 28.3854 12.8411 27.8416 12.7225 27.3123C12.4411 26.0091 11.3083 26.3127 10.442 24.8023C9.88505 23.805 10.0126 23.7895 10.0126 16.5615C9.95539 15.9481 10.4063 15.4045 11.0197 15.3474C11.6331 15.2902 12.1767 15.7411 12.2338 16.3545C12.2402 16.4234 12.2402 16.4927 12.2338 16.5615V20.9966C12.2211 21.3033 12.4595 21.5622 12.7662 21.5749C13.0729 21.5876 13.3318 21.3493 13.3445 21.0425C13.3451 21.0273 13.3451 21.0119 13.3445 20.9966V16.5615C13.2873 15.9482 13.7382 15.4046 14.3516 15.3474C14.965 15.2903 15.5086 15.7412 15.5657 16.3546C15.5721 16.4235 15.5721 16.4928 15.5657 16.5616V20.9967C15.553 21.3034 15.7913 21.5623 16.0981 21.575C16.4048 21.5877 16.6636 21.3493 16.6763 21.0426C16.677 21.0274 16.677 21.012 16.6763 20.9967V16.5616C16.6155 15.9518 17.0605 15.4082 17.6703 15.3474C18.2802 15.2865 18.8238 15.7315 18.8846 16.3414C18.8882 16.3776 18.8901 16.4141 18.8901 16.4506V16.458C18.8962 16.4921 18.8987 16.5269 18.8975 16.5616C18.8976 23.7489 19.0258 23.7757 18.4681 24.7653Z" fill="#FF9B57"/>
<defs>
<linearGradient id="paint0_linear_4003_286" x1="30" y1="0" x2="30" y2="60" gradientUnits="userSpaceOnUse">
<stop stop-color="white"/>
<stop offset="1" stop-color="#CFF6FF"/>
</linearGradient>
</defs>
</svg>
