<svg width="34" height="34" viewBox="0 0 34 34" fill="none" xmlns="http://www.w3.org/2000/svg">
<path d="M20.3082 8.24996L31.237 16.859C31.3428 16.9421 31.4269 17.0417 31.4844 17.1519C31.5418 17.2621 31.5714 17.3806 31.5714 17.5003C31.5714 17.62 31.5418 17.7385 31.4844 17.8486C31.4269 17.9588 31.3428 18.0584 31.237 18.1415L20.3082 26.7506C20.2083 26.8308 20.0899 26.8941 19.9599 26.9369C19.8298 26.9797 19.6907 27.0011 19.5504 27C19.2606 27 18.9826 26.9061 18.7776 26.7391C18.5727 26.5721 18.4575 26.3456 18.4575 26.1094V21.6683C8.69445 21.9889 4.58521 26.4418 4.41035 26.6318C4.27123 26.7811 4.07921 26.8918 3.86028 26.9492C3.64134 27.0065 3.40608 27.0077 3.18632 26.9525C2.96712 26.8949 2.77583 26.7824 2.63976 26.631C2.50368 26.4796 2.42978 26.297 2.42859 26.1094C2.42859 16.5859 12.0314 13.6648 18.4575 13.3679V8.89119C18.458 8.71604 18.5219 8.54489 18.6411 8.39916C18.7603 8.25342 18.9296 8.13957 19.1278 8.07184C19.3241 8.00287 19.5411 7.98298 19.7512 8.01469C19.9614 8.0464 20.1552 8.12829 20.3082 8.24996Z" fill="#AAAAAA"/>
</svg>
