<svg width="34" height="34" viewBox="0 0 34 34" fill="none" xmlns="http://www.w3.org/2000/svg">
<path d="M29.75 4.25016V29.7615C29.7496 30.1343 29.6012 30.4918 29.3375 30.7553C29.0737 31.0188 28.7161 31.1668 28.3432 31.1668H5.65675C5.2847 31.1642 4.92861 31.0154 4.66539 30.7524C4.40218 30.4895 4.25297 30.1335 4.25 29.7615V4.23883C4.25 3.4625 4.88042 2.8335 5.65675 2.8335H28.3333C28.7091 2.8335 29.0694 2.98275 29.3351 3.24843C29.6007 3.5141 29.75 3.87444 29.75 4.25016ZM15.9984 18.5882L12.4922 15.082L10.489 17.0866L15.9984 22.596L24.0125 14.5819L22.0093 12.5787L15.9984 18.5882Z" fill="#FF9B57"/>
</svg>
