<svg width="60" height="60" viewBox="0 0 60 60" fill="none" xmlns="http://www.w3.org/2000/svg">
<path d="M0 30C0 13.4315 13.4315 0 30 0C46.5685 0 60 13.4315 60 30C60 46.5685 46.5685 60 30 60C13.4315 60 0 46.5685 0 30Z" fill="url(#paint0_linear_4003_300)"/>
<path d="M17.3332 42.9033H20.5527L17.8984 36.0024C17.5423 36.1177 17.1902 36.2457 16.8448 36.3861C15.8824 36.7772 15.4027 37.8843 15.7757 38.8539L17.3332 42.9033Z" fill="#00B0B0"/>
<path d="M23.0639 42.9036H30.3322L33.546 34.5476C33.9189 33.5779 33.4394 32.4709 32.4769 32.0797C28.7504 30.5652 24.6458 30.5652 20.9193 32.0797C19.9569 32.4709 19.4772 33.578 19.8501 34.5476L23.0639 42.9036Z" fill="#00B0B0"/>
<path d="M14.8222 42.9035L13.8244 40.3091C13.4681 40.4244 13.116 40.5524 12.7707 40.6927C11.8925 41.0496 11.4167 42.0027 11.6234 42.9034L14.8222 42.9035Z" fill="#00B0B0"/>
<path d="M36.0627 42.9033L37.6202 38.8539C37.9931 37.8843 37.5135 36.7772 36.551 36.386C36.2056 36.2456 35.8535 36.1177 35.4974 36.0024L32.8431 42.9033H36.0627Z" fill="#00B0B0"/>
<path d="M40.6253 40.6928C40.28 40.5524 39.9278 40.4244 39.5717 40.3091L38.5739 42.9034H41.7726C41.9793 42.0027 41.5035 41.0497 40.6253 40.6928Z" fill="#00B0B0"/>
<path d="M10 45.6529C10 47.0432 11.1311 48.1743 12.5214 48.1743H42.7911C44.1814 48.1743 45.3125 47.0432 45.3125 45.6529V45.2471H10V45.6529Z" fill="#00B0B0"/>
<path d="M30.9064 19.266H33.2501C33.2501 18.6271 33.3918 18.3595 33.6064 17.9544C33.8866 17.4254 34.2354 16.7671 34.2354 15.5458C34.2354 14.3246 33.8867 13.6661 33.6065 13.1371C33.3919 12.7318 33.2502 12.4642 33.2502 11.8252H30.9064C30.9064 13.0465 31.2551 13.705 31.5353 14.2339C31.7499 14.6392 31.8916 14.9068 31.8916 15.5458C31.8916 16.1846 31.7499 16.4523 31.5353 16.8574C31.255 17.3864 30.9064 18.0448 30.9064 19.266Z" fill="#FF9B57"/>
<path d="M36.5986 19.2659H38.9424C38.9424 18.6271 39.0841 18.3594 39.2987 17.9543C39.5789 17.4254 39.9275 16.767 39.9275 15.5458C39.9275 14.3246 39.5789 13.6661 39.2987 13.1371C39.0841 12.7319 38.9424 12.4643 38.9424 11.8252H36.5986C36.5986 13.0465 36.9473 13.7049 37.2275 14.2339C37.4421 14.6391 37.5838 14.9068 37.5838 15.5458C37.5838 16.1846 37.4421 16.4523 37.2275 16.8574C36.9473 17.3864 36.5986 18.0447 36.5986 19.2659Z" fill="#FF9B57"/>
<path d="M45.9845 26.4798C45.388 26.4798 44.8221 26.6115 44.3127 26.8458V22.397H27.8699V28.6392C29.7331 28.7642 31.5834 29.1867 33.3592 29.9085C34.4003 30.3315 35.2196 31.1324 35.6664 32.1635C35.8814 32.6599 35.9974 33.1828 36.0159 33.7086C36.4957 33.8576 36.9699 34.0266 37.4335 34.215C38.4746 34.6381 39.2939 35.439 39.7406 36.4702C39.9556 36.9665 40.0716 37.4894 40.0902 38.0152C40.57 38.1642 41.0443 38.3331 41.5078 38.5215C42.5056 38.9271 43.2986 39.6801 43.7562 40.6497C44.1193 39.8354 44.3127 38.9432 44.3127 38.0185V36.9028C44.8221 37.1371 45.3881 37.2688 45.9845 37.2688C48.1986 37.2688 50 35.4674 50 33.2532V30.4954C50 28.2811 48.1986 26.4798 45.9845 26.4798ZM47.6563 33.2531C47.6563 34.1749 46.9063 34.9249 45.9845 34.9249C45.0627 34.9249 44.3127 34.1749 44.3127 33.2531V30.4953C44.3127 29.5735 45.0627 28.8235 45.9845 28.8235C46.9063 28.8235 47.6563 29.5735 47.6563 30.4953V33.2531Z" fill="#FF9B57"/>
<defs>
<linearGradient id="paint0_linear_4003_300" x1="30" y1="0" x2="30" y2="60" gradientUnits="userSpaceOnUse">
<stop stop-color="white"/>
<stop offset="1" stop-color="#CFF6FF"/>
</linearGradient>
</defs>
</svg>
