<svg width="60" height="60" viewBox="0 0 60 60" fill="none" xmlns="http://www.w3.org/2000/svg">
<path d="M0 30C0 13.4315 13.4315 0 30 0C46.5685 0 60 13.4315 60 30C60 46.5685 46.5685 60 30 60C13.4315 60 0 46.5685 0 30Z" fill="url(#paint0_linear_4003_350)"/>
<path d="M20.1953 37.9923C21.1953 37.8438 22.1562 37.6641 23.3906 37.3673C24.8906 37.0079 25.5234 36.7891 26.4062 36.1485C27.9765 35.0157 27.5234 31.8673 27.0624 28.9063C26.6796 26.461 25.7968 23.9844 24.6328 22.1251C22.7734 19.1563 20.8437 18.6485 19.5546 18.7501C18.0468 18.8673 16.7187 19.5782 15.7031 20.8204C13.9765 22.9219 13.3671 26.2579 13.9843 30.2188C14.3984 32.9063 15.3515 35.9141 16.4453 37.1563C17.5468 38.4141 19.1953 38.1407 20.1953 37.9923Z" fill="#FF9B57"/>
<path d="M26.9218 38.7815L18.414 40.5393C17.6327 40.7033 17.3671 41.1877 17.5546 42.2268C17.9608 44.508 20.4452 48.758 24.1718 48.758C28.1093 48.758 29.3593 44.1096 28.4843 40.219C28.2187 39.0236 27.6405 38.633 26.9218 38.7815Z" fill="#00B0B0"/>
<path d="M44.2968 13.3282C43.2812 12.0938 41.9452 11.3751 40.4452 11.2579C39.1562 11.1563 37.2265 11.6641 35.3671 14.6329C34.203 16.4923 33.3124 18.961 32.9374 21.4141C32.4765 24.3673 32.0312 27.5235 33.5937 28.6485C34.4765 29.2891 35.1093 29.5079 36.6093 29.8673C37.8437 30.1563 38.7968 30.3438 39.7968 30.4923C40.7968 30.6407 42.4452 30.9219 43.5468 29.6641C44.6483 28.4063 45.5937 25.4141 46.0155 22.7266C46.6327 18.7657 46.0233 15.4298 44.2968 13.3282Z" fill="#FF9B57"/>
<path d="M41.5859 33.0311L33.0781 31.2733C32.3594 31.1249 31.7812 31.5233 31.5156 32.703C30.6406 36.5936 31.8984 41.2421 35.8281 41.2421C39.5547 41.2421 42.039 36.9921 42.4453 34.7108C42.625 33.6874 42.3672 33.1952 41.5859 33.0311Z" fill="#00B0B0"/>
<defs>
<linearGradient id="paint0_linear_4003_350" x1="30" y1="0" x2="30" y2="60" gradientUnits="userSpaceOnUse">
<stop stop-color="white"/>
<stop offset="1" stop-color="#CFF6FF"/>
</linearGradient>
</defs>
</svg>
